<?xml version="1.0" encoding="UTF-8" ?>
<!DOCTYPE svg PUBLIC "-//W3C//DTD SVG 1.1//EN" "http://www.w3.org/Graphics/SVG/1.1/DTD/svg11.dtd">
<svg width="253pt" height="100pt" viewBox="0 0 253 100" version="1.1" xmlns="http://www.w3.org/2000/svg">
<g id="#ffffffff">
<path fill="#ffffff" opacity="1.00" d=" M 0.00 0.00 L 71.58 0.00 C 63.60 9.16 57.98 20.31 55.23 32.13 C 58.63 20.42 63.82 9.02 72.20 0.00 L 253.00 0.00 L 253.00 100.00 L 177.89 100.00 C 180.27 94.70 183.10 89.58 185.01 84.08 C 186.57 82.65 188.16 81.26 189.72 79.81 C 189.65 80.92 189.53 83.14 189.46 84.25 C 191.26 84.36 191.49 82.14 192.53 81.17 C 191.94 80.58 191.35 79.98 190.76 79.40 L 193.15 80.93 C 192.54 78.79 191.94 76.66 191.31 74.52 C 189.90 77.87 187.67 80.86 184.22 82.29 C 184.07 79.65 184.34 77.02 185.00 74.46 C 182.81 74.53 180.60 74.21 178.43 74.55 C 176.02 75.45 175.27 78.16 174.37 80.29 C 174.05 80.35 173.42 80.47 173.10 80.52 C 172.06 81.54 170.93 82.43 169.70 83.19 C 169.04 80.38 169.12 77.31 170.64 74.78 C 173.07 74.52 175.60 74.69 177.90 73.70 C 175.60 73.56 173.30 73.62 171.01 73.66 C 171.19 72.72 171.56 70.83 171.75 69.89 C 170.59 71.04 169.49 72.23 168.44 73.47 C 167.93 73.54 166.91 73.69 166.40 73.76 C 166.12 74.04 165.56 74.61 165.28 74.89 C 166.14 74.83 167.86 74.70 168.71 74.63 C 167.74 77.71 166.37 80.94 163.30 82.46 C 163.04 79.71 162.80 76.95 162.33 74.23 C 158.69 73.84 157.03 77.35 155.48 79.98 C 155.47 78.11 156.02 75.96 154.60 74.43 C 153.18 77.65 151.14 80.83 147.83 82.35 C 146.05 83.54 144.18 82.42 143.00 80.99 C 145.68 80.18 148.81 79.51 150.19 76.76 C 149.53 75.97 148.21 74.39 147.55 73.59 C 147.64 74.52 147.82 76.36 147.91 77.28 C 146.52 78.24 145.07 79.09 143.59 79.89 C 143.89 77.90 144.91 76.52 146.66 75.74 C 145.98 75.31 145.30 74.87 144.63 74.44 C 142.52 76.57 140.52 79.79 142.21 82.77 C 143.38 84.92 146.28 84.16 148.16 83.59 L 150.15 83.05 C 146.96 89.54 142.65 95.43 137.00 100.00 L 110.04 100.00 C 103.89 92.48 100.72 83.02 94.36 75.66 C 89.44 69.62 86.27 61.96 86.18 54.11 C 86.05 54.44 85.77 55.10 85.64 55.42 C 86.47 59.98 87.50 64.54 89.54 68.72 C 91.96 74.00 96.16 78.13 99.12 83.07 C 102.55 88.73 105.32 94.83 109.52 100.00 L 75.17 100.00 C 73.25 98.10 71.47 96.05 69.98 93.79 C 64.34 84.78 59.12 75.36 56.20 65.07 C 59.68 65.17 63.17 65.24 66.65 65.18 C 70.26 65.04 74.76 63.90 75.67 59.83 C 77.97 50.36 76.89 40.47 75.47 30.95 C 72.18 31.25 68.89 31.64 65.61 32.08 C 66.26 38.04 67.33 44.03 66.85 50.04 C 66.83 51.16 66.25 52.16 65.51 52.96 C 62.27 53.66 58.85 54.20 55.59 53.38 C 54.49 52.25 54.43 50.59 54.27 49.13 C 53.94 44.34 54.31 39.53 54.83 34.77 C 54.88 34.41 54.97 33.70 55.02 33.34 L 55.00 33.33 C 52.15 32.02 49.06 31.16 45.90 31.27 C 44.78 32.20 44.91 33.82 44.58 35.12 C 43.39 43.30 43.13 51.70 44.52 59.88 C 45.47 63.94 50.39 64.38 53.80 64.82 C 54.33 64.88 55.39 64.99 55.92 65.04 C 59.58 77.71 66.18 89.46 74.08 99.95 L 72.88 100.00 L 0.00 100.00 L 0.00 0.00 M 178.90 0.87 C 183.68 7.53 188.48 14.36 191.17 22.18 C 192.86 26.41 193.70 30.94 195.59 35.10 C 192.18 22.84 187.73 10.34 178.90 0.87 M 104.89 16.84 C 94.87 22.78 87.58 33.55 86.24 45.14 C 88.18 33.18 95.80 22.30 106.41 16.43 C 110.15 14.31 114.31 13.16 118.31 11.68 C 113.65 12.81 109.02 14.35 104.89 16.84 M 119.07 11.13 C 118.54 12.73 119.09 13.28 120.75 12.78 C 121.28 11.17 120.72 10.62 119.07 11.13 M 122.48 11.26 C 122.74 12.65 126.42 12.71 126.64 11.26 C 125.47 10.44 123.65 10.48 122.48 11.26 M 129.33 11.44 C 129.33 11.62 129.32 11.99 129.32 12.17 C 133.59 11.94 137.52 13.77 141.30 15.50 C 148.54 18.81 154.47 24.62 158.52 31.42 C 160.41 34.61 160.58 38.85 163.88 41.09 C 165.72 43.66 168.10 45.78 170.31 48.02 C 168.79 49.64 167.10 51.13 165.91 53.02 C 164.19 54.83 162.04 56.50 161.05 58.82 C 163.28 61.78 166.13 64.19 168.89 66.65 C 172.15 63.46 175.33 60.21 178.36 56.82 C 181.69 60.01 184.80 63.42 188.18 66.56 C 191.09 64.09 193.81 61.40 196.25 58.46 C 194.55 56.61 192.87 54.74 191.07 52.98 C 189.90 51.09 188.17 49.62 186.66 48.01 C 188.54 46.08 190.56 44.26 192.15 42.07 C 193.61 40.66 194.94 39.12 196.21 37.54 C 193.56 34.86 190.94 32.15 188.04 29.74 C 184.79 32.91 181.61 36.15 178.30 39.26 C 175.25 35.91 171.98 32.77 168.55 29.80 C 166.08 32.18 163.63 34.60 161.33 37.15 C 156.92 23.16 143.57 13.45 129.33 11.44 M 123.20 17.33 L 122.52 17.68 C 125.36 18.38 128.26 18.79 131.19 18.73 C 133.94 21.00 137.46 22.88 140.95 23.39 C 141.52 23.88 142.66 24.87 143.24 25.36 L 142.92 25.88 C 143.51 25.87 144.69 25.85 145.29 25.84 C 145.04 27.42 145.68 27.99 147.21 27.56 C 147.23 29.47 148.66 30.62 150.19 31.47 C 150.22 30.88 150.28 29.69 150.31 29.10 C 153.68 29.53 149.90 24.59 148.05 25.29 C 146.68 21.24 142.04 20.04 138.53 18.47 C 134.19 16.90 129.42 15.08 124.79 16.55 C 123.61 15.81 122.35 15.63 120.99 16.02 C 119.13 17.01 122.40 17.94 123.20 17.33 M 199.22 49.79 C 201.40 58.47 210.36 62.06 216.14 67.95 C 220.45 64.66 224.58 61.14 228.92 57.90 C 231.69 60.83 235.00 63.14 238.15 65.63 C 238.91 64.87 239.48 64.01 239.86 63.06 C 237.42 60.54 234.42 58.66 231.79 56.35 C 231.42 56.23 230.68 55.97 230.31 55.85 C 232.29 52.93 233.87 49.64 234.04 46.06 C 234.76 36.94 227.07 28.19 217.92 27.68 C 206.30 26.14 195.77 38.58 199.22 49.79 M 92.14 33.90 C 92.45 43.20 92.09 52.55 93.29 61.79 C 93.14 62.39 92.83 63.59 92.67 64.19 C 96.12 64.97 99.73 65.98 103.28 65.33 C 104.21 61.41 103.78 57.31 103.78 53.31 L 104.42 53.41 C 106.57 57.56 109.66 61.08 112.26 64.93 C 115.14 65.97 118.26 65.40 121.08 64.45 C 122.56 63.79 124.82 63.12 124.42 61.04 C 124.34 51.51 123.84 42.00 123.57 32.48 C 120.30 31.75 116.94 30.89 113.58 31.36 C 113.37 31.76 112.95 32.56 112.74 32.95 C 112.94 36.67 112.70 40.39 112.92 44.10 C 112.43 43.61 111.46 42.64 110.98 42.15 L 111.16 41.82 C 109.07 38.66 106.78 35.62 104.76 32.41 C 101.00 29.74 95.79 31.91 92.14 33.90 M 8.54 32.75 C 8.66 36.54 9.04 40.32 9.54 44.08 C 10.57 44.06 11.59 44.01 12.62 43.92 C 14.55 44.03 16.49 44.09 18.43 44.14 C 18.24 50.77 18.52 57.41 19.12 64.00 C 20.92 65.42 23.75 64.91 25.96 65.10 C 27.21 64.91 29.51 65.51 29.44 63.55 C 29.99 56.94 30.06 50.30 30.10 43.67 C 33.40 43.68 36.71 43.65 39.99 43.32 C 40.38 39.67 40.69 35.98 40.07 32.34 C 32.23 31.86 24.31 30.76 16.48 31.99 C 13.82 31.58 11.16 32.34 8.54 32.75 M 126.83 32.14 C 126.83 34.54 126.94 36.94 127.41 39.30 C 127.43 40.36 127.51 41.43 127.62 42.49 C 128.34 42.47 129.77 42.44 130.48 42.42 C 130.34 49.60 130.36 56.82 131.01 63.96 L 131.38 64.55 C 140.51 65.04 149.74 64.92 158.84 63.91 C 159.14 60.57 159.13 57.22 158.87 53.89 C 153.35 53.86 147.84 54.46 142.32 54.50 C 142.34 53.96 142.37 52.89 142.38 52.36 C 145.86 52.11 149.34 51.89 152.83 51.76 C 153.05 49.13 153.07 46.49 152.90 43.86 C 149.84 43.78 146.78 43.78 143.74 44.14 C 142.70 43.84 141.44 42.88 142.85 42.02 C 147.59 41.48 152.40 42.06 157.13 41.33 C 157.09 38.77 156.99 36.21 156.67 33.67 C 156.62 33.17 156.51 32.15 156.45 31.65 C 148.09 31.47 139.69 31.37 131.35 32.17 C 129.85 31.98 128.34 32.13 126.83 32.14 M 162.22 42.36 C 161.14 43.31 162.42 45.76 163.79 44.78 C 164.85 43.82 163.58 41.38 162.22 42.36 M 155.19 42.79 C 155.15 43.58 155.07 45.18 155.03 45.97 C 156.39 46.04 157.75 46.10 159.12 46.17 C 159.06 45.65 158.93 44.63 158.87 44.11 C 158.05 44.25 157.23 44.39 156.41 44.53 C 156.11 44.09 155.49 43.22 155.19 42.79 M 85.26 46.09 C 84.71 47.73 85.24 48.31 86.85 47.82 C 87.40 46.18 86.87 45.60 85.26 46.09 M 163.21 46.25 C 161.63 49.21 166.54 46.43 163.21 46.25 M 155.97 47.44 C 154.50 50.46 159.31 47.50 155.97 47.44 M 195.27 48.45 C 194.38 49.64 194.63 50.31 196.03 50.46 C 196.92 49.27 196.67 48.60 195.27 48.45 M 157.15 50.27 C 156.59 51.88 157.13 52.45 158.77 51.99 C 159.33 50.38 158.79 49.81 157.15 50.27 M 163.19 50.27 C 162.65 51.89 163.20 52.45 164.83 51.95 C 165.37 50.33 164.82 49.77 163.19 50.27 M 194.27 52.19 C 193.77 53.84 194.32 54.39 195.94 53.86 C 196.43 52.22 195.88 51.66 194.27 52.19 M 158.78 70.79 C 161.27 68.78 162.20 65.65 162.91 62.66 C 159.94 64.20 159.62 67.93 158.78 70.79 M 108.14 71.27 C 108.87 71.62 110.31 72.32 111.03 72.66 C 110.33 76.05 109.99 79.54 108.87 82.82 C 108.18 82.97 106.78 83.25 106.09 83.39 C 108.54 85.51 111.96 83.80 114.85 84.00 C 113.92 82.83 112.65 82.32 111.04 82.48 C 111.73 79.01 112.37 75.53 113.15 72.07 C 114.02 72.02 115.76 71.90 116.63 71.85 C 114.56 69.11 110.91 71.25 108.14 71.27 M 203.52 71.22 C 202.18 71.44 201.27 72.15 200.80 73.35 C 201.48 75.94 207.00 70.88 203.52 71.22 M 120.60 79.28 C 122.65 79.07 123.52 75.70 125.60 76.26 C 126.11 79.20 124.84 83.44 128.71 84.33 C 130.57 82.50 132.13 80.40 133.64 78.27 C 134.04 80.42 134.37 82.59 134.68 84.76 C 137.79 82.60 139.65 79.24 141.34 75.96 C 140.95 75.77 140.17 75.38 139.78 75.19 C 138.96 77.68 137.74 79.99 136.30 82.17 C 135.06 79.38 135.63 73.51 131.25 73.77 C 131.82 74.85 132.41 75.92 133.01 76.98 C 131.58 78.90 130.63 81.73 127.97 82.22 C 127.44 79.79 127.81 77.25 127.14 74.85 C 124.10 72.71 121.97 77.35 120.60 79.28 M 192.72 77.91 C 193.08 78.43 193.45 78.94 193.83 79.46 C 193.65 75.24 199.16 77.94 198.96 74.09 C 196.20 73.96 194.53 76.23 192.72 77.91 M 206.92 78.11 C 205.68 80.22 203.95 83.00 201.11 82.66 C 200.77 80.55 203.67 75.65 200.09 75.54 C 199.93 78.12 199.28 80.70 199.61 83.29 C 201.90 85.62 204.58 82.93 206.28 81.33 C 207.58 84.82 212.34 85.16 214.57 82.41 C 216.51 80.50 216.18 77.67 216.13 75.19 L 215.51 75.84 C 214.91 75.26 213.69 74.11 213.08 73.53 C 211.02 75.03 208.01 75.55 206.92 78.11 M 216.67 75.47 C 216.75 76.45 216.82 77.44 216.88 78.42 C 217.70 78.15 219.34 77.60 220.15 77.33 C 220.78 78.56 221.42 79.79 222.06 81.01 L 220.25 80.89 C 221.53 81.77 222.88 82.57 223.82 83.84 C 223.68 80.03 227.98 79.09 229.33 75.98 C 227.28 77.13 225.54 78.73 223.73 80.21 C 223.29 79.44 222.43 77.90 221.99 77.13 C 222.39 76.61 223.20 75.55 223.60 75.02 C 223.21 74.66 222.43 73.94 222.04 73.58 C 220.79 74.99 217.80 79.60 216.67 75.47 M 118.65 75.38 C 119.15 78.37 116.95 82.27 119.43 84.58 C 120.33 82.51 121.35 80.49 122.40 78.50 L 120.31 79.68 C 120.33 77.98 120.29 76.29 120.21 74.59 C 119.82 74.79 119.04 75.19 118.65 75.38 M 219.12 82.63 C 217.50 84.05 219.99 86.09 221.54 85.96 C 222.39 84.65 220.16 83.18 219.12 82.63 Z" />
<path fill="#ffffff" opacity="1.00" d=" M 214.52 36.77 C 220.05 35.43 226.15 40.26 225.91 45.99 C 226.39 51.40 221.30 56.38 215.94 56.09 C 210.89 55.82 206.38 51.07 206.77 45.93 C 206.84 41.56 210.28 37.64 214.52 36.77 M 217.73 37.70 C 219.42 39.24 221.46 40.42 222.90 42.23 C 223.82 44.14 224.04 46.29 224.62 48.31 C 224.61 46.02 225.10 43.45 223.64 41.47 C 222.39 39.31 220.03 38.29 217.73 37.70 Z" />
<path fill="#ffffff" opacity="1.00" d=" M 177.62 83.01 C 175.24 80.90 176.62 76.93 178.97 75.38 C 180.25 75.48 181.51 75.73 182.74 76.15 C 181.33 78.64 179.61 80.95 177.62 83.01 Z" />
<path fill="#ffffff" opacity="1.00" d=" M 208.98 78.06 C 210.16 76.36 213.83 74.98 214.47 77.86 C 214.27 79.10 214.01 80.33 213.69 81.55 C 212.29 82.17 210.88 83.50 209.26 82.66 C 208.36 81.28 207.78 79.47 208.98 78.06 Z" />
</g>
<g id="#cf297cff">
<path fill="#cf297c" opacity="1.00" d=" M 71.58 0.00 L 72.20 0.00 C 63.82 9.02 58.63 20.42 55.23 32.13 C 57.98 20.31 63.60 9.16 71.58 0.00 Z" />
<path fill="#cf297c" opacity="1.00" d=" M 178.90 0.87 C 187.73 10.34 192.18 22.84 195.59 35.10 C 193.70 30.94 192.86 26.41 191.17 22.18 C 188.48 14.36 183.68 7.53 178.90 0.87 Z" />
<path fill="#cf297c" opacity="1.00" d=" M 104.89 16.84 C 109.02 14.35 113.65 12.81 118.31 11.68 C 114.31 13.16 110.15 14.31 106.41 16.43 C 95.80 22.30 88.18 33.18 86.24 45.14 C 87.58 33.55 94.87 22.78 104.89 16.84 Z" />
<path fill="#cf297c" opacity="1.00" d=" M 129.33 11.44 C 143.57 13.45 156.92 23.16 161.33 37.15 C 163.63 34.60 166.08 32.18 168.55 29.80 C 171.98 32.77 175.25 35.91 178.30 39.26 C 181.61 36.15 184.79 32.91 188.04 29.74 C 190.94 32.15 193.56 34.86 196.21 37.54 C 194.94 39.12 193.61 40.66 192.15 42.07 L 192.24 40.42 C 189.56 42.70 187.20 45.32 184.97 48.03 C 186.90 50.43 189.01 52.70 191.41 54.64 L 191.07 52.98 C 192.87 54.74 194.55 56.61 196.25 58.46 C 193.81 61.40 191.09 64.09 188.18 66.56 C 184.80 63.42 181.69 60.01 178.36 56.82 C 175.33 60.21 172.15 63.46 168.89 66.65 C 166.13 64.19 163.28 61.78 161.05 58.82 C 162.04 56.50 164.19 54.83 165.91 53.02 L 165.73 54.64 C 167.98 52.70 169.98 50.49 171.85 48.18 C 169.46 44.96 166.80 41.93 163.68 39.40 L 163.88 41.09 C 160.58 38.85 160.41 34.61 158.52 31.42 C 154.47 24.62 148.54 18.81 141.30 15.50 C 137.52 13.77 133.59 11.94 129.32 12.17 C 129.32 11.99 129.33 11.62 129.33 11.44 Z" />
<path fill="#cf297c" opacity="1.00" d=" M 85.64 55.42 C 85.77 55.10 86.05 54.44 86.18 54.11 C 86.27 61.96 89.44 69.62 94.36 75.66 C 100.72 83.02 103.89 92.48 110.04 100.00 L 109.52 100.00 C 105.32 94.83 102.55 88.73 99.12 83.07 C 96.16 78.13 91.96 74.00 89.54 68.72 C 87.50 64.54 86.47 59.98 85.64 55.42 Z" />
</g>
<g id="#f4cce0ff">
<path fill="#f4cce0" opacity="1.00" d=" M 119.07 11.13 C 120.72 10.62 121.28 11.17 120.75 12.78 C 119.09 13.28 118.54 12.73 119.07 11.13 Z" />
</g>
<g id="#eba3c7ff">
<path fill="#eba3c7" opacity="1.00" d=" M 122.48 11.26 C 123.65 10.48 125.47 10.44 126.64 11.26 C 126.42 12.71 122.74 12.65 122.48 11.26 Z" />
</g>
<g id="#ea9cc3ff">
<path fill="#ea9cc3" opacity="1.00" d=" M 123.20 17.33 C 122.40 17.94 119.13 17.01 120.99 16.02 C 122.35 15.63 123.61 15.81 124.79 16.55 C 124.39 16.75 123.60 17.14 123.20 17.33 Z" />
</g>
<g id="#faecf3ff">
<path fill="#faecf3" opacity="1.00" d=" M 124.79 16.55 C 129.42 15.08 134.19 16.90 138.53 18.47 C 142.04 20.04 146.68 21.24 148.05 25.29 C 148.62 26.66 149.45 27.89 150.31 29.10 C 150.28 29.69 150.22 30.88 150.19 31.47 C 148.66 30.62 147.23 29.47 147.21 27.56 C 147.08 26.35 146.44 25.78 145.29 25.84 C 144.69 25.85 143.51 25.87 142.92 25.88 L 143.24 25.36 C 144.66 23.75 142.33 22.59 140.95 23.39 C 137.46 22.88 133.94 21.00 131.19 18.73 C 128.26 18.79 125.36 18.38 122.52 17.68 L 123.20 17.33 C 123.60 17.14 124.39 16.75 124.79 16.55 Z" />
</g>
<g id="#edaaccff">
<path fill="#edaacc" opacity="1.00" d=" M 140.95 23.39 C 142.33 22.59 144.66 23.75 143.24 25.36 C 142.66 24.87 141.52 23.88 140.95 23.39 Z" />
</g>
<g id="#e999c0ff">
<path fill="#e999c0" opacity="1.00" d=" M 148.05 25.29 C 149.90 24.59 153.68 29.53 150.31 29.10 C 149.45 27.89 148.62 26.66 148.05 25.29 Z" />
</g>
<g id="#d0287bff">
<path fill="#d0287b" opacity="1.00" d=" M 145.29 25.84 C 146.44 25.78 147.08 26.35 147.21 27.56 C 145.68 27.99 145.04 27.42 145.29 25.84 Z" />
<path fill="#d0287b" opacity="1.00" d=" M 199.22 49.79 C 195.77 38.58 206.30 26.14 217.92 27.68 C 227.07 28.19 234.76 36.94 234.04 46.06 C 233.87 49.64 232.29 52.93 230.31 55.85 C 230.68 55.97 231.42 56.23 231.79 56.35 C 231.08 56.74 229.64 57.51 228.92 57.90 C 224.58 61.14 220.45 64.66 216.14 67.95 C 210.36 62.06 201.40 58.47 199.22 49.79 M 214.52 36.77 C 210.28 37.64 206.84 41.56 206.77 45.93 C 206.38 51.07 210.89 55.82 215.94 56.09 C 221.30 56.38 226.39 51.40 225.91 45.99 C 226.15 40.26 220.05 35.43 214.52 36.77 Z" />
<path fill="#d0287b" opacity="1.00" d=" M 217.73 37.70 C 220.03 38.29 222.39 39.31 223.64 41.47 C 225.10 43.45 224.61 46.02 224.62 48.31 C 224.04 46.29 223.82 44.14 222.90 42.23 C 221.46 40.42 219.42 39.24 217.73 37.70 Z" />
<path fill="#d0287b" opacity="1.00" d=" M 55.92 65.04 L 56.20 65.07 C 59.12 75.36 64.34 84.78 69.98 93.79 C 71.47 96.05 73.25 98.10 75.17 100.00 L 72.88 100.00 L 74.08 99.95 C 66.18 89.46 59.58 77.71 55.92 65.04 Z" />
</g>
<g id="#675caeff">
<path fill="#675cae" opacity="1.00" d=" M 65.61 32.08 C 68.89 31.64 72.18 31.25 75.47 30.95 C 76.89 40.47 77.97 50.36 75.67 59.83 C 74.76 63.90 70.26 65.04 66.65 65.18 C 65.35 61.84 64.78 58.27 63.49 54.92 C 64.18 54.29 64.86 53.64 65.51 52.96 C 66.25 52.16 66.83 51.16 66.85 50.04 C 67.33 44.03 66.26 38.04 65.61 32.08 Z" />
</g>
<g id="#823791ff">
<path fill="#823791" opacity="1.00" d=" M 92.14 33.90 C 95.79 31.91 101.00 29.74 104.76 32.41 C 101.22 33.04 97.68 33.56 94.13 34.10 C 94.22 40.76 94.25 47.41 94.44 54.07 C 94.55 56.70 94.02 59.28 93.29 61.79 C 92.09 52.55 92.45 43.20 92.14 33.90 Z" />
</g>
<g id="#af247cff">
<path fill="#af247c" opacity="1.00" d=" M 113.58 31.36 C 116.94 30.89 120.30 31.75 123.57 32.48 C 123.84 42.00 124.34 51.51 124.42 61.04 C 124.82 63.12 122.56 63.79 121.08 64.45 C 118.26 65.40 115.14 65.97 112.26 64.93 C 115.54 63.81 119.07 63.53 122.27 62.18 C 123.80 52.58 121.14 42.94 121.75 33.31 C 118.74 33.22 115.74 33.12 112.74 32.95 C 112.95 32.56 113.37 31.76 113.58 31.36 Z" />
</g>
<g id="#098adaff">
<path fill="#098ada" opacity="1.00" d=" M 8.54 32.75 C 11.16 32.34 13.82 31.58 16.48 31.99 C 17.08 32.12 18.27 32.37 18.87 32.50 C 18.13 35.88 17.41 39.37 18.18 42.81 C 16.33 43.21 14.49 43.62 12.62 43.92 C 11.59 44.01 10.57 44.06 9.54 44.08 C 9.04 40.32 8.66 36.54 8.54 32.75 Z" />
</g>
<g id="#2071c8ff">
<path fill="#2071c8" opacity="1.00" d=" M 16.48 31.99 C 24.31 30.76 32.23 31.86 40.07 32.34 C 40.69 35.98 40.38 39.67 39.99 43.32 C 36.71 43.65 33.40 43.68 30.10 43.67 C 30.22 43.28 30.46 42.48 30.57 42.08 C 33.29 41.78 36.03 41.69 38.76 41.59 C 38.74 39.17 38.73 36.74 38.72 34.32 C 37.54 34.12 36.36 33.93 35.18 33.75 C 29.80 32.65 24.28 33.23 18.87 32.50 C 18.27 32.37 17.08 32.12 16.48 31.99 Z" />
</g>
<g id="#3365bcff">
<path fill="#3365bc" opacity="1.00" d=" M 44.58 35.12 C 44.91 33.82 44.78 32.20 45.90 31.27 C 49.06 31.16 52.15 32.02 55.00 33.33 C 52.16 33.71 49.29 33.66 46.46 33.20 C 45.59 42.45 44.09 52.06 46.92 61.13 C 48.84 62.71 51.54 62.54 53.86 63.04 C 54.42 63.12 55.54 63.29 56.10 63.37 C 55.53 63.73 54.38 64.46 53.80 64.82 C 50.39 64.38 45.47 63.94 44.52 59.88 C 43.13 51.70 43.39 43.30 44.58 35.12 Z" />
</g>
<g id="#954698ff">
<path fill="#954698" opacity="1.00" d=" M 104.76 32.41 C 106.78 35.62 109.07 38.66 111.16 41.82 L 110.98 42.15 C 107.96 46.47 109.12 51.99 108.80 56.92 C 107.81 55.81 106.84 54.69 105.79 53.64 C 105.44 53.59 104.76 53.47 104.42 53.41 L 103.78 53.31 C 103.78 57.31 104.21 61.41 103.28 65.33 C 99.73 65.98 96.12 64.97 92.67 64.19 C 92.83 63.59 93.14 62.39 93.29 61.79 C 94.02 59.28 94.55 56.70 94.44 54.07 C 94.25 47.41 94.22 40.76 94.13 34.10 C 97.68 33.56 101.22 33.04 104.76 32.41 Z" />
</g>
<g id="#ca2c7fff">
<path fill="#ca2c7f" opacity="1.00" d=" M 126.83 32.14 C 128.34 32.13 129.85 31.98 131.35 32.17 C 139.00 34.30 146.96 32.73 154.76 33.20 C 155.07 35.16 155.39 37.12 155.73 39.07 C 156.08 37.28 156.44 35.48 156.67 33.67 C 156.99 36.21 157.09 38.77 157.13 41.33 C 152.40 42.06 147.59 41.48 142.85 42.02 C 141.44 42.88 142.70 43.84 143.74 44.14 C 143.16 44.78 142.58 45.42 142.01 46.07 C 144.98 45.99 147.96 45.86 150.93 45.65 C 150.89 46.99 150.85 48.32 150.82 49.66 C 148.07 49.87 145.32 50.07 142.59 50.49 C 142.54 50.96 142.43 51.89 142.38 52.36 C 142.37 52.89 142.34 53.96 142.32 54.50 L 142.41 55.99 C 147.24 56.75 152.13 56.25 156.94 55.58 C 156.89 57.96 156.85 60.34 156.81 62.72 C 148.65 62.64 140.49 62.80 132.33 62.70 C 132.19 55.91 132.59 49.11 132.04 42.34 C 130.54 40.59 129.16 38.74 127.83 36.86 C 127.72 37.47 127.51 38.69 127.41 39.30 C 126.94 36.94 126.83 34.54 126.83 32.14 Z" />
</g>
<g id="#c30e6aff">
<path fill="#c30e6a" opacity="1.00" d=" M 131.35 32.17 C 139.69 31.37 148.09 31.47 156.45 31.65 C 156.51 32.15 156.62 33.17 156.67 33.67 C 156.44 35.48 156.08 37.28 155.73 39.07 C 155.39 37.12 155.07 35.16 154.76 33.20 C 146.96 32.73 139.00 34.30 131.35 32.17 Z" />
</g>
<g id="#1982d2ff">
<path fill="#1982d2" opacity="1.00" d=" M 18.87 32.50 C 24.28 33.23 29.80 32.65 35.18 33.75 C 34.46 33.86 33.01 34.07 32.29 34.18 C 31.89 36.84 31.41 39.51 30.57 42.08 C 30.46 42.48 30.22 43.28 30.10 43.67 C 30.06 50.30 29.99 56.94 29.44 63.55 C 29.51 65.51 27.21 64.91 25.96 65.10 C 23.75 64.91 20.92 65.42 19.12 64.00 C 18.52 57.41 18.24 50.77 18.43 44.14 C 16.49 44.09 14.55 44.03 12.62 43.92 C 14.49 43.62 16.33 43.21 18.18 42.81 C 17.41 39.37 18.13 35.88 18.87 32.50 Z" />
</g>
<g id="#446dbfff">
<path fill="#446dbf" opacity="1.00" d=" M 46.46 33.20 C 49.29 33.66 52.16 33.71 55.00 33.33 L 55.02 33.34 C 54.97 33.70 54.88 34.41 54.83 34.77 C 54.42 35.20 53.60 36.05 53.19 36.48 C 52.56 42.63 51.64 49.36 54.72 55.04 C 54.25 57.68 53.88 60.35 53.86 63.04 C 51.54 62.54 48.84 62.71 46.92 61.13 C 44.09 52.06 45.59 42.45 46.46 33.20 Z" />
</g>
<g id="#ae398cff">
<path fill="#ae398c" opacity="1.00" d=" M 112.74 32.95 C 115.74 33.12 118.74 33.22 121.75 33.31 C 121.14 42.94 123.80 52.58 122.27 62.18 C 119.07 63.53 115.54 63.81 112.26 64.93 C 109.66 61.08 106.57 57.56 104.42 53.41 C 104.76 53.47 105.44 53.59 105.79 53.64 C 106.84 54.69 107.81 55.81 108.80 56.92 C 109.12 51.99 107.96 46.47 110.98 42.15 C 111.46 42.64 112.43 43.61 112.92 44.10 C 112.70 40.39 112.94 36.67 112.74 32.95 Z" />
<path fill="#ae398c" opacity="1.00" d=" M 148.16 83.59 C 150.25 82.11 152.16 80.41 154.09 78.74 C 153.98 80.45 153.85 82.16 153.76 83.87 C 153.19 82.85 152.65 81.81 152.12 80.77 C 148.08 87.65 144.38 94.93 137.99 100.00 L 137.00 100.00 C 142.65 95.43 146.96 89.54 150.15 83.05 L 148.16 83.59 Z" />
</g>
<g id="#2d79caff">
<path fill="#2d79ca" opacity="1.00" d=" M 32.29 34.18 C 33.01 34.07 34.46 33.86 35.18 33.75 C 36.36 33.93 37.54 34.12 38.72 34.32 C 38.73 36.74 38.74 39.17 38.76 41.59 C 36.03 41.69 33.29 41.78 30.57 42.08 C 31.41 39.51 31.89 36.84 32.29 34.18 Z" />
</g>
<g id="#3753b0ff">
<path fill="#3753b0" opacity="1.00" d=" M 53.19 36.48 C 53.60 36.05 54.42 35.20 54.83 34.77 C 54.31 39.53 53.94 44.34 54.27 49.13 C 54.43 50.59 54.49 52.25 55.59 53.38 C 58.85 54.20 62.27 53.66 65.51 52.96 C 64.86 53.64 64.18 54.29 63.49 54.92 C 60.57 55.17 57.64 55.10 54.72 55.04 C 51.64 49.36 52.56 42.63 53.19 36.48 Z" />
</g>
<g id="#c62579ff">
<path fill="#c62579" opacity="1.00" d=" M 127.83 36.86 C 129.16 38.74 130.54 40.59 132.04 42.34 C 132.59 49.11 132.19 55.91 132.33 62.70 C 140.49 62.80 148.65 62.64 156.81 62.72 C 156.85 60.34 156.89 57.96 156.94 55.58 C 152.13 56.25 147.24 56.75 142.41 55.99 L 142.32 54.50 C 147.84 54.46 153.35 53.86 158.87 53.89 C 159.13 57.22 159.14 60.57 158.84 63.91 C 149.74 64.92 140.51 65.04 131.38 64.55 L 131.01 63.96 C 130.36 56.82 130.34 49.60 130.48 42.42 C 129.77 42.44 128.34 42.47 127.62 42.49 C 127.51 41.43 127.43 40.36 127.41 39.30 C 127.51 38.69 127.72 37.47 127.83 36.86 Z" />
</g>
<g id="#c61568ff">
<path fill="#c61568" opacity="1.00" d=" M 163.68 39.40 C 166.80 41.93 169.46 44.96 171.85 48.18 C 169.98 50.49 167.98 52.70 165.73 54.64 L 165.91 53.02 C 167.10 51.13 168.79 49.64 170.31 48.02 C 168.10 45.78 165.72 43.66 163.88 41.09 L 163.68 39.40 Z" />
</g>
<g id="#c91665ff">
<path fill="#c91665" opacity="1.00" d=" M 184.97 48.03 C 187.20 45.32 189.56 42.70 192.24 40.42 L 192.15 42.07 C 190.56 44.26 188.54 46.08 186.66 48.01 C 188.17 49.62 189.90 51.09 191.07 52.98 L 191.41 54.64 C 189.01 52.70 186.90 50.43 184.97 48.03 Z" />
</g>
<g id="#f5d3e4ff">
<path fill="#f5d3e4" opacity="1.00" d=" M 162.22 42.36 C 163.58 41.38 164.85 43.82 163.79 44.78 C 162.42 45.76 161.14 43.31 162.22 42.36 Z" />
</g>
<g id="#f4c9deff">
<path fill="#f4c9de" opacity="1.00" d=" M 155.19 42.79 C 155.49 43.22 156.11 44.09 156.41 44.53 C 157.23 44.39 158.05 44.25 158.87 44.11 C 158.93 44.63 159.06 45.65 159.12 46.17 C 157.75 46.10 156.39 46.04 155.03 45.97 C 155.07 45.18 155.15 43.58 155.19 42.79 Z" />
</g>
<g id="#c72075ff">
<path fill="#c72075" opacity="1.00" d=" M 143.74 44.14 C 146.78 43.78 149.84 43.78 152.90 43.86 C 153.07 46.49 153.05 49.13 152.83 51.76 C 149.34 51.89 145.86 52.11 142.38 52.36 C 142.43 51.89 142.54 50.96 142.59 50.49 C 145.32 50.07 148.07 49.87 150.82 49.66 C 150.85 48.32 150.89 46.99 150.93 45.65 C 147.96 45.86 144.98 45.99 142.01 46.07 C 142.58 45.42 143.16 44.78 143.74 44.14 Z" />
</g>
<g id="#f3c9deff">
<path fill="#f3c9de" opacity="1.00" d=" M 85.26 46.09 C 86.87 45.60 87.40 46.18 86.85 47.82 C 85.24 48.31 84.71 47.73 85.26 46.09 Z" />
<path fill="#f3c9de" opacity="1.00" d=" M 158.78 70.79 C 159.62 67.93 159.94 64.20 162.91 62.66 C 162.20 65.65 161.27 68.78 158.78 70.79 Z" />
</g>
<g id="#f0bbd5ff">
<path fill="#f0bbd5" opacity="1.00" d=" M 163.21 46.25 C 166.54 46.43 161.63 49.21 163.21 46.25 Z" />
</g>
<g id="#f2c0d9ff">
<path fill="#f2c0d9" opacity="1.00" d=" M 155.97 47.44 C 159.31 47.50 154.50 50.46 155.97 47.44 Z" />
</g>
<g id="#f0b8d4ff">
<path fill="#f0b8d4" opacity="1.00" d=" M 195.27 48.45 C 196.67 48.60 196.92 49.27 196.03 50.46 C 194.63 50.31 194.38 49.64 195.27 48.45 Z" />
</g>
<g id="#f2c2daff">
<path fill="#f2c2da" opacity="1.00" d=" M 157.15 50.27 C 158.79 49.81 159.33 50.38 158.77 51.99 C 157.13 52.45 156.59 51.88 157.15 50.27 Z" />
</g>
<g id="#f5d2e3ff">
<path fill="#f5d2e3" opacity="1.00" d=" M 163.19 50.27 C 164.82 49.77 165.37 50.33 164.83 51.95 C 163.20 52.45 162.65 51.89 163.19 50.27 Z" />
</g>
<g id="#f4cde0ff">
<path fill="#f4cde0" opacity="1.00" d=" M 194.27 52.19 C 195.88 51.66 196.43 52.22 195.94 53.86 C 194.32 54.39 193.77 53.84 194.27 52.19 Z" />
</g>
<g id="#5465b7ff">
<path fill="#5465b7" opacity="1.00" d=" M 54.72 55.04 C 57.64 55.10 60.57 55.17 63.49 54.92 C 64.78 58.27 65.35 61.84 66.65 65.18 C 63.17 65.24 59.68 65.17 56.20 65.07 L 55.92 65.04 C 55.39 64.99 54.33 64.88 53.80 64.82 C 54.38 64.46 55.53 63.73 56.10 63.37 C 55.54 63.29 54.42 63.12 53.86 63.04 C 53.88 60.35 54.25 57.68 54.72 55.04 Z" />
</g>
<g id="#ca1767ff">
<path fill="#ca1767" opacity="1.00" d=" M 228.92 57.90 C 229.64 57.51 231.08 56.74 231.79 56.35 C 234.42 58.66 237.42 60.54 239.86 63.06 C 239.48 64.01 238.91 64.87 238.15 65.63 C 235.00 63.14 231.69 60.83 228.92 57.90 Z" />
</g>
<g id="#000000ff">
<path fill="#000000" opacity="1.00" d=" M 168.44 73.47 C 169.49 72.23 170.59 71.04 171.75 69.89 C 171.56 70.83 171.19 72.72 171.01 73.66 C 173.30 73.62 175.60 73.56 177.90 73.70 C 175.60 74.69 173.07 74.52 170.64 74.78 C 169.12 77.31 169.04 80.38 169.70 83.19 C 170.93 82.43 172.06 81.54 173.10 80.52 C 173.42 80.47 174.05 80.35 174.37 80.29 C 175.27 78.16 176.02 75.45 178.43 74.55 C 180.60 74.21 182.81 74.53 185.00 74.46 C 184.34 77.02 184.07 79.65 184.22 82.29 C 187.67 80.86 189.90 77.87 191.31 74.52 C 191.94 76.66 192.54 78.79 193.15 80.93 L 190.76 79.40 C 191.35 79.98 191.94 80.58 192.53 81.17 C 191.49 82.14 191.26 84.36 189.46 84.25 C 189.53 83.14 189.65 80.92 189.72 79.81 C 188.16 81.26 186.57 82.65 185.01 84.08 C 182.79 83.57 182.26 81.66 182.12 79.64 C 180.27 81.96 178.13 85.13 174.68 83.69 L 175.46 82.04 C 174.46 82.05 173.47 82.06 172.48 82.06 L 173.00 83.15 C 170.54 84.56 167.54 84.22 167.08 80.96 C 165.73 82.12 163.69 85.56 161.87 83.17 C 160.46 80.89 161.12 77.82 160.39 75.27 C 157.71 77.94 156.25 81.49 154.00 84.48 L 153.76 83.87 C 153.85 82.16 153.98 80.45 154.09 78.74 C 152.16 80.41 150.25 82.11 148.16 83.59 C 146.28 84.16 143.38 84.92 142.21 82.77 C 140.52 79.79 142.52 76.57 144.63 74.44 C 145.30 74.87 145.98 75.31 146.66 75.74 C 144.91 76.52 143.89 77.90 143.59 79.89 C 145.07 79.09 146.52 78.24 147.91 77.28 C 147.82 76.36 147.64 74.52 147.55 73.59 C 148.21 74.39 149.53 75.97 150.19 76.76 C 148.81 79.51 145.68 80.18 143.00 80.99 C 144.18 82.42 146.05 83.54 147.83 82.35 C 151.14 80.83 153.18 77.65 154.60 74.43 C 156.02 75.96 155.47 78.11 155.48 79.98 C 157.03 77.35 158.69 73.84 162.33 74.23 C 162.80 76.95 163.04 79.71 163.30 82.46 C 166.37 80.94 167.74 77.71 168.71 74.63 C 167.86 74.70 166.14 74.83 165.28 74.89 C 165.56 74.61 166.12 74.04 166.40 73.76 C 166.91 73.69 167.93 73.54 168.44 73.47 M 177.62 83.01 C 179.61 80.95 181.33 78.64 182.74 76.15 C 181.51 75.73 180.25 75.48 178.97 75.38 C 176.62 76.93 175.24 80.90 177.62 83.01 Z" />
<path fill="#000000" opacity="1.00" d=" M 203.52 71.22 C 207.00 70.88 201.48 75.94 200.80 73.35 C 201.27 72.15 202.18 71.44 203.52 71.22 Z" />
<path fill="#000000" opacity="1.00" d=" M 120.60 79.28 C 121.97 77.35 124.10 72.71 127.14 74.85 C 127.81 77.25 127.44 79.79 127.97 82.22 C 130.63 81.73 131.58 78.90 133.01 76.98 C 132.41 75.92 131.82 74.85 131.25 73.77 C 135.63 73.51 135.06 79.38 136.30 82.17 C 137.74 79.99 138.96 77.68 139.78 75.19 C 140.17 75.38 140.95 75.77 141.34 75.96 C 139.65 79.24 137.79 82.60 134.68 84.76 C 134.37 82.59 134.04 80.42 133.64 78.27 C 132.13 80.40 130.57 82.50 128.71 84.33 C 124.84 83.44 126.11 79.20 125.60 76.26 C 123.52 75.70 122.65 79.07 120.60 79.28 Z" />
<path fill="#000000" opacity="1.00" d=" M 192.72 77.91 C 194.53 76.23 196.20 73.96 198.96 74.09 C 199.16 77.94 193.65 75.24 193.83 79.46 C 193.45 78.94 193.08 78.43 192.72 77.91 Z" />
<path fill="#000000" opacity="1.00" d=" M 206.92 78.11 C 208.01 75.55 211.02 75.03 213.08 73.53 C 213.69 74.11 214.91 75.26 215.51 75.84 L 216.13 75.19 C 216.18 77.67 216.51 80.50 214.57 82.41 C 212.34 85.16 207.58 84.82 206.28 81.33 C 204.58 82.93 201.90 85.62 199.61 83.29 C 199.28 80.70 199.93 78.12 200.09 75.54 C 203.67 75.65 200.77 80.55 201.11 82.66 C 203.95 83.00 205.68 80.22 206.92 78.11 M 208.98 78.06 C 207.78 79.47 208.36 81.28 209.26 82.66 C 210.88 83.50 212.29 82.17 213.69 81.55 C 214.01 80.33 214.27 79.10 214.47 77.86 C 213.83 74.98 210.16 76.36 208.98 78.06 Z" />
<path fill="#000000" opacity="1.00" d=" M 216.67 75.47 C 217.80 79.60 220.79 74.99 222.04 73.58 C 222.43 73.94 223.21 74.66 223.60 75.02 C 223.20 75.55 222.39 76.61 221.99 77.13 C 222.43 77.90 223.29 79.44 223.73 80.21 C 225.54 78.73 227.28 77.13 229.33 75.98 C 227.98 79.09 223.68 80.03 223.82 83.84 C 222.88 82.57 221.53 81.77 220.25 80.89 L 222.06 81.01 C 221.42 79.79 220.78 78.56 220.15 77.33 C 219.34 77.60 217.70 78.15 216.88 78.42 C 216.82 77.44 216.75 76.45 216.67 75.47 Z" />
<path fill="#000000" opacity="1.00" d=" M 118.65 75.38 C 119.04 75.19 119.82 74.79 120.21 74.59 C 120.29 76.29 120.33 77.98 120.31 79.68 L 122.40 78.50 C 121.35 80.49 120.33 82.51 119.43 84.58 C 116.95 82.27 119.15 78.37 118.65 75.38 Z" />
<path fill="#000000" opacity="1.00" d=" M 219.12 82.63 C 220.16 83.18 222.39 84.65 221.54 85.96 C 219.99 86.09 217.50 84.05 219.12 82.63 Z" />
</g>
<g id="#020202ff">
<path fill="#020202" opacity="1.00" d=" M 108.14 71.27 C 110.91 71.25 114.56 69.11 116.63 71.85 C 115.76 71.90 114.02 72.02 113.15 72.07 C 112.37 75.53 111.73 79.01 111.04 82.48 C 112.65 82.32 113.92 82.83 114.85 84.00 C 111.96 83.80 108.54 85.51 106.09 83.39 C 106.78 83.25 108.18 82.97 108.87 82.82 C 109.99 79.54 110.33 76.05 111.03 72.66 C 110.31 72.32 108.87 71.62 108.14 71.27 Z" />
</g>
<g id="#fffcfdff">
<path fill="#fffcfd" opacity="1.00" d=" M 154.00 84.48 C 156.25 81.49 157.71 77.94 160.39 75.27 C 161.12 77.82 160.46 80.89 161.87 83.17 C 163.69 85.56 165.73 82.12 167.08 80.96 C 167.54 84.22 170.54 84.56 173.00 83.15 L 172.48 82.06 C 173.47 82.06 174.46 82.05 175.46 82.04 L 174.68 83.69 C 178.13 85.13 180.27 81.96 182.12 79.64 C 182.26 81.66 182.79 83.57 185.01 84.08 C 183.10 89.58 180.27 94.70 177.89 100.00 L 137.99 100.00 C 144.38 94.93 148.08 87.65 152.12 80.77 C 152.65 81.81 153.19 82.85 153.76 83.87 L 154.00 84.48 Z" />
</g>
</svg>
