<?xml version="1.0" encoding="UTF-8" ?>
<!DOCTYPE svg PUBLIC "-//W3C//DTD SVG 1.1//EN" "http://www.w3.org/Graphics/SVG/1.1/DTD/svg11.dtd">
<svg width="251pt" height="100pt" viewBox="0 0 251 100" version="1.1" xmlns="http://www.w3.org/2000/svg">
<g id="#ffffffff">
</g>
<g id="#f8ddeaff">
<path fill="#f8ddea" opacity="1.00" d=" M 69.08 0.00 L 70.37 0.00 C 67.11 5.60 63.47 11.03 61.17 17.12 C 59.62 20.94 59.06 25.16 56.76 28.66 C 57.95 18.19 62.98 8.46 69.08 0.00 Z" />
</g>
<g id="#f8dfebff">
<path fill="#f8dfeb" opacity="1.00" d=" M 184.34 0.00 L 185.83 0.00 C 189.70 4.89 192.37 10.59 194.76 16.32 C 196.70 21.17 198.67 26.15 198.90 31.44 C 196.24 27.40 195.87 22.44 193.95 18.09 C 191.60 11.63 187.98 5.78 184.34 0.00 Z" />
</g>
<g id="#ca2b7eff">
<path fill="#ca2b7e" opacity="1.00" d=" M 111.72 10.12 C 115.20 7.86 119.50 8.30 123.23 6.73 C 121.96 7.26 120.70 7.80 119.39 8.23 C 103.25 10.79 90.91 25.30 88.21 41.03 C 90.18 27.63 99.26 15.52 111.72 10.12 Z" />
<path fill="#ca2b7e" opacity="1.00" d=" M 131.30 7.37 C 133.02 6.71 134.95 7.26 136.69 7.56 C 141.63 9.61 146.79 11.40 150.95 14.88 C 146.87 12.45 142.81 9.44 137.95 8.91 C 135.65 8.77 133.56 7.71 131.30 7.37 Z" />
<path fill="#ca2b7e" opacity="1.00" d=" M 129.49 27.73 C 130.20 27.81 131.62 27.97 132.33 28.05 C 140.54 30.61 149.26 28.48 157.70 29.26 C 157.72 31.43 157.75 33.60 157.78 35.78 C 153.61 35.78 149.43 35.65 145.27 36.03 L 145.11 37.50 C 145.06 38.07 144.97 39.21 144.92 39.78 C 148.38 39.74 151.85 39.68 155.31 39.54 C 155.77 42.20 155.77 44.90 155.60 47.59 C 152.16 47.85 148.69 47.67 145.28 48.25 C 145.12 48.79 144.81 49.87 144.65 50.41 C 150.12 50.65 155.58 49.78 161.03 49.88 C 162.50 52.57 161.73 56.39 161.52 59.47 C 160.43 60.70 158.38 60.14 156.89 60.45 C 149.08 60.66 141.25 61.01 133.45 60.54 C 133.26 53.13 132.83 45.73 132.99 38.32 C 132.30 38.27 130.92 38.17 130.24 38.12 C 129.69 34.68 129.23 31.21 129.49 27.73 Z" />
<path fill="#ca2b7e" opacity="1.00" d=" M 87.35 52.26 C 87.57 51.74 88.01 50.70 88.23 50.18 C 89.14 53.39 88.38 56.89 89.87 59.96 C 92.50 65.70 95.42 71.43 99.76 76.09 C 97.23 73.95 95.65 71.01 93.66 68.43 L 92.40 68.23 C 90.78 62.90 88.86 57.65 87.35 52.26 Z" />
<path fill="#ca2b7e" opacity="1.00" d=" M 160.88 68.23 C 159.14 72.51 154.99 75.00 152.85 79.00 C 150.82 79.54 147.74 78.53 146.84 81.06 C 148.83 81.09 150.82 81.06 152.81 81.09 C 151.81 83.01 149.31 82.27 147.56 82.67 C 147.49 83.21 147.34 84.28 147.27 84.81 C 149.39 84.71 151.51 84.56 153.63 84.39 L 153.64 85.85 C 151.09 86.01 148.55 86.18 146.00 86.36 C 145.87 83.50 145.84 80.64 145.81 77.78 C 148.25 78.08 150.72 78.02 153.14 77.55 C 155.88 74.58 158.74 71.70 160.88 68.23 Z" />
<path fill="#ca2b7e" opacity="1.00" d=" M 194.43 92.28 C 198.12 93.66 201.46 96.74 203.81 100.00 L 202.37 100.00 C 200.42 96.73 196.07 95.62 194.43 92.28 Z" />
</g>
<g id="#f7d8e7ff">
<path fill="#f7d8e7" opacity="1.00" d=" M 124.67 5.93 C 126.51 6.24 129.79 5.03 130.05 7.79 C 128.08 7.59 124.60 9.10 124.67 5.93 Z" />
</g>
<g id="#f3cbdfff">
<path fill="#f3cbdf" opacity="1.00" d=" M 123.04 11.00 C 125.36 11.28 128.34 10.73 129.69 13.19 C 127.14 13.19 124.59 13.07 122.05 12.91 C 122.30 12.43 122.79 11.48 123.04 11.00 Z" />
</g>
<g id="#cf297cff">
<path fill="#cf297c" opacity="1.00" d=" M 152.21 15.90 C 156.36 18.97 159.60 23.17 161.83 27.80 C 159.39 23.25 155.91 19.45 152.21 15.90 Z" />
<path fill="#cf297c" opacity="1.00" d=" M 163.69 33.69 C 166.11 30.72 168.85 28.03 171.81 25.62 C 174.97 28.81 178.32 31.81 181.35 35.13 C 184.71 32.04 187.89 28.77 191.14 25.58 C 194.08 27.87 196.59 30.64 199.27 33.21 C 196.42 37.05 192.95 40.38 189.80 43.97 C 192.90 47.51 196.66 50.71 199.02 54.75 C 196.81 57.70 194.03 60.18 191.17 62.49 C 188.06 59.20 184.78 56.07 181.75 52.70 C 178.19 55.71 175.21 59.33 171.90 62.61 C 169.10 60.19 166.25 57.76 164.01 54.79 C 166.49 50.75 170.17 47.54 173.25 43.94 C 170.01 40.57 166.94 37.05 163.69 33.69 Z" />
</g>
<g id="#d0287bff">
<path fill="#d0287b" opacity="1.00" d=" M 210.82 25.77 C 219.00 20.61 231.11 23.87 235.42 32.59 C 239.06 38.53 237.82 46.18 233.96 51.69 C 237.45 53.80 240.49 56.55 243.69 59.05 C 243.25 59.69 242.35 60.96 241.91 61.60 C 238.63 59.08 235.15 56.76 232.43 53.61 C 228.39 57.21 223.89 60.25 219.87 63.88 C 214.02 58.54 205.90 54.82 202.98 46.98 C 200.10 39.18 203.69 29.91 210.82 25.77 M 217.37 32.54 C 209.90 34.18 207.43 44.97 213.46 49.67 C 218.44 54.57 227.60 51.54 229.24 44.92 C 231.72 38.03 224.41 30.29 217.37 32.54 Z" />
<path fill="#d0287b" opacity="1.00" d=" M 221.60 33.84 C 225.32 34.37 227.95 37.51 228.14 41.21 C 226.90 37.98 224.69 35.41 221.60 33.84 Z" />
</g>
<g id="#446cbeff">
<path fill="#446cbe" opacity="1.00" d=" M 46.99 26.98 C 50.19 27.32 53.75 27.09 56.48 29.09 C 56.37 35.57 54.70 42.25 56.64 48.61 C 58.84 50.76 62.63 49.24 65.43 49.58 C 64.16 51.18 62.33 52.75 62.64 55.02 C 62.66 57.32 63.92 59.32 64.86 61.34 C 58.84 60.53 51.24 62.20 46.67 57.31 C 44.25 47.45 45.06 36.90 46.99 26.98 Z" />
<path fill="#446cbe" opacity="1.00" d=" M 63.20 84.73 C 63.18 82.49 61.77 78.52 64.68 77.71 C 64.68 80.19 64.71 82.68 64.92 85.16 C 66.72 84.91 69.86 84.65 69.28 82.02 C 69.63 80.43 68.38 77.64 70.86 77.54 C 70.89 79.71 70.91 81.88 70.98 84.05 C 69.13 86.13 64.84 87.86 63.20 84.73 Z" />
</g>
<g id="#655caeff">
<path fill="#655cae" opacity="1.00" d=" M 67.54 27.96 C 70.73 27.40 73.94 26.95 77.17 26.65 C 78.80 35.36 79.35 44.33 78.09 53.12 C 77.74 55.85 76.62 58.91 73.88 60.04 C 71.00 61.13 67.88 61.12 64.86 61.34 C 63.92 59.32 62.66 57.32 62.64 55.02 C 62.33 52.75 64.16 51.18 65.43 49.58 L 65.69 49.27 C 66.70 48.59 68.48 48.40 68.68 46.96 C 69.33 40.61 68.21 34.27 67.54 27.96 Z" />
<path fill="#655cae" opacity="1.00" d=" M 92.26 83.76 C 91.18 79.61 96.25 76.32 99.98 77.97 C 100.17 78.42 100.55 79.30 100.74 79.75 C 99.49 79.46 98.25 79.11 96.99 78.93 C 94.47 79.18 92.54 82.61 94.45 84.64 C 96.63 85.80 98.59 83.80 100.43 82.92 C 100.24 86.88 93.29 87.85 92.26 83.76 Z" />
</g>
<g id="#90479aff">
<path fill="#90479a" opacity="1.00" d=" M 99.97 27.31 C 101.21 27.13 102.44 26.93 103.68 26.72 C 104.09 33.16 104.02 39.60 103.96 46.05 C 103.55 47.80 105.05 48.54 106.27 49.32 C 105.46 53.32 106.32 57.47 105.40 61.44 C 102.17 61.62 98.84 61.38 95.76 60.35 C 94.63 57.37 94.83 53.76 94.99 50.55 C 97.38 44.03 95.23 37.07 96.42 30.40 C 97.93 29.17 100.06 29.11 101.86 28.51 C 101.39 28.21 100.44 27.61 99.97 27.31 Z" />
<path fill="#90479a" opacity="1.00" d=" M 109.23 77.32 C 110.02 76.08 110.92 74.90 112.00 73.88 C 111.85 75.20 111.25 76.28 110.18 77.13 C 112.18 77.52 114.58 78.54 114.42 81.01 C 115.07 85.87 107.03 88.77 105.02 84.00 C 104.22 80.88 106.94 78.76 109.23 77.32 M 106.02 83.12 C 107.21 84.76 109.47 86.15 111.17 84.27 C 113.44 83.20 113.67 79.31 110.94 78.70 C 108.25 78.34 107.03 81.17 106.02 83.12 Z" />
<path fill="#90479a" opacity="1.00" d=" M 116.07 77.41 C 118.32 79.44 120.36 81.69 122.75 83.58 C 123.16 81.49 121.65 78.46 124.05 77.15 C 124.24 80.30 124.22 83.46 124.16 86.62 C 121.81 84.73 119.56 82.73 117.25 80.80 C 117.34 82.60 117.44 84.39 117.54 86.19 C 118.41 86.31 120.15 86.56 121.02 86.68 C 119.27 86.52 117.52 86.32 115.78 86.13 C 115.95 83.22 115.99 80.31 116.07 77.41 Z" />
</g>
<g id="#9e4193ff">
<path fill="#9e4193" opacity="1.00" d=" M 103.68 26.72 C 105.01 26.68 106.04 27.18 106.77 28.23 C 108.72 30.95 110.81 33.60 112.40 36.55 C 113.12 43.23 114.22 50.33 111.71 56.78 C 109.87 54.31 108.24 51.69 106.27 49.32 C 105.05 48.54 103.55 47.80 103.96 46.05 C 104.02 39.60 104.09 33.16 103.68 26.72 Z" />
<path fill="#9e4193" opacity="1.00" d=" M 129.09 77.84 C 131.74 78.39 135.02 76.82 137.27 78.60 C 135.13 79.60 131.15 78.24 130.52 81.18 C 132.45 81.14 134.39 81.08 136.33 81.13 C 134.99 83.38 129.85 81.35 130.98 84.76 C 133.20 84.74 135.43 84.59 137.66 84.70 C 136.11 87.09 132.89 85.92 130.56 86.47 C 129.97 87.14 129.36 87.79 128.73 88.42 C 127.74 88.15 125.76 87.62 124.77 87.35 C 125.56 87.47 127.13 87.69 127.92 87.81 C 130.46 85.10 128.87 81.14 129.09 77.84 Z" />
</g>
<g id="#af388bff">
<path fill="#af388b" opacity="1.00" d=" M 115.37 27.09 C 118.78 26.82 122.31 27.01 125.56 28.15 C 126.20 30.49 126.42 33.01 125.99 35.40 C 125.06 38.17 124.56 41.08 124.79 44.02 C 125.09 49.32 124.90 54.64 124.72 59.95 L 124.72 60.08 C 121.74 60.94 118.61 62.00 115.47 61.41 C 113.99 60.07 112.89 58.37 111.71 56.78 C 114.22 50.33 113.12 43.23 112.40 36.55 C 113.30 37.68 114.20 38.80 115.12 39.93 C 115.19 35.65 115.26 31.37 115.37 27.09 Z" />
<path fill="#af388b" opacity="1.00" d=" M 138.37 86.41 C 138.91 83.56 136.65 79.01 139.85 77.48 C 139.92 79.90 139.91 82.33 139.88 84.75 C 141.65 84.71 143.99 83.47 145.04 85.53 C 142.83 85.92 140.60 86.20 138.37 86.41 Z" />
</g>
<g id="#088adaff">
<path fill="#088ada" opacity="1.00" d=" M 10.02 28.24 C 11.52 28.09 13.02 27.79 14.53 27.86 C 16.02 28.24 17.49 28.68 18.99 29.05 C 19.08 32.57 19.28 36.09 19.53 39.60 C 16.61 39.76 13.69 39.84 10.77 39.86 C 10.30 36.01 9.79 32.13 10.02 28.24 Z" />
<path fill="#088ada" opacity="1.00" d=" M 27.36 78.16 C 29.90 78.42 33.12 76.60 35.19 78.58 C 33.05 79.46 29.26 78.23 28.66 81.21 C 30.63 81.10 32.60 80.96 34.57 80.89 C 33.44 82.83 30.88 82.30 29.01 82.78 C 29.01 83.71 29.02 85.58 29.02 86.51 C 25.76 85.36 28.02 80.82 27.36 78.16 Z" />
<path fill="#088ada" opacity="1.00" d=" M 33.63 86.60 C 34.37 82.91 37.25 80.22 39.08 77.05 C 40.85 80.15 43.08 83.02 44.20 86.44 C 42.34 86.06 41.70 84.25 40.90 82.79 C 39.61 82.80 38.33 82.81 37.05 82.83 C 36.09 84.23 35.12 85.69 33.63 86.60 M 38.13 80.18 C 37.62 81.83 38.17 82.37 39.78 81.80 C 40.29 80.15 39.74 79.61 38.13 80.18 Z" />
</g>
<g id="#0572cdff">
<path fill="#0572cd" opacity="1.00" d=" M 14.53 27.86 C 22.17 27.00 29.95 27.04 37.59 27.96 C 35.69 28.37 33.80 28.80 31.88 29.06 C 27.58 28.98 23.28 29.11 18.99 29.05 C 17.49 28.68 16.02 28.24 14.53 27.86 Z" />
</g>
<g id="#2b79c9ff">
<path fill="#2b79c9" opacity="1.00" d=" M 37.59 27.96 C 38.97 27.75 40.37 28.11 41.75 28.22 C 41.79 31.89 42.19 35.68 41.00 39.22 C 38.06 38.87 35.10 38.64 32.15 38.48 C 31.94 35.34 31.85 32.20 31.88 29.06 C 33.80 28.80 35.69 28.37 37.59 27.96 Z" />
<path fill="#2b79c9" opacity="1.00" d=" M 53.44 79.85 C 55.20 77.41 58.82 78.02 61.50 77.58 C 61.77 77.83 62.32 78.35 62.59 78.61 C 61.59 78.76 59.60 79.05 58.60 79.19 C 58.09 81.59 59.86 85.29 57.06 86.55 C 56.97 84.24 56.96 81.92 56.98 79.61 C 56.10 79.67 54.32 79.79 53.44 79.85 Z" />
</g>
<g id="#7d3490ff">
<path fill="#7d3490" opacity="1.00" d=" M 94.32 29.80 C 96.08 28.72 97.98 27.87 99.97 27.31 C 100.44 27.61 101.39 28.21 101.86 28.51 C 100.06 29.11 97.93 29.17 96.42 30.40 C 95.23 37.07 97.38 44.03 94.99 50.55 C 94.30 43.66 94.64 36.72 94.32 29.80 Z" />
</g>
<g id="#c82178ff">
<path fill="#c82178" opacity="1.00" d=" M 132.33 28.05 C 141.24 26.92 150.27 27.29 159.23 27.40 C 159.66 30.72 160.07 34.11 159.34 37.43 C 154.60 37.32 149.85 37.53 145.11 37.50 L 145.27 36.03 C 149.43 35.65 153.61 35.78 157.78 35.78 C 157.75 33.60 157.72 31.43 157.70 29.26 C 149.26 28.48 140.54 30.61 132.33 28.05 Z" />
</g>
<g id="#1b81d2ff">
<path fill="#1b81d2" opacity="1.00" d=" M 18.99 29.05 C 23.28 29.11 27.58 28.98 31.88 29.06 C 31.85 32.20 31.94 35.34 32.15 38.48 C 35.10 38.64 38.06 38.87 41.00 39.22 L 41.08 39.22 C 37.87 39.35 34.66 39.39 31.45 39.43 C 31.49 46.56 31.27 53.68 30.73 60.79 C 27.31 61.27 23.86 61.07 20.47 60.48 C 19.97 53.53 19.68 46.57 19.53 39.60 C 19.28 36.09 19.08 32.57 18.99 29.05 Z" />
<path fill="#1b81d2" opacity="1.00" d=" M 44.78 83.88 C 42.89 79.21 51.26 74.65 53.16 79.88 C 51.22 79.32 48.71 78.06 47.22 80.17 C 45.39 81.59 45.74 84.55 48.10 85.17 C 49.86 84.73 51.42 83.75 53.08 83.05 C 52.36 86.72 45.83 87.93 44.78 83.88 Z" />
</g>
<g id="#b01a77ff">
<path fill="#b01a77" opacity="1.00" d=" M 124.79 44.02 C 124.56 41.08 125.06 38.17 125.99 35.40 C 126.67 42.93 126.58 50.52 126.66 58.08 C 126.17 58.55 125.21 59.48 124.72 59.95 C 124.90 54.64 125.09 49.32 124.79 44.02 Z" />
</g>
<g id="#f7d9e7ff">
<path fill="#f7d9e7" opacity="1.00" d=" M 163.45 62.40 C 165.08 62.69 163.77 66.21 162.26 65.75 C 161.56 64.63 162.40 63.02 163.45 62.40 Z" />
</g>
<g id="#cd2077ff">
<path fill="#cd2077" opacity="1.00" d=" M 186.27 77.36 C 187.07 76.14 187.94 74.96 188.97 73.92 C 188.76 75.23 188.16 76.35 187.18 77.28 C 190.32 76.87 192.44 80.38 191.17 83.07 C 189.90 86.32 184.36 88.12 182.43 84.54 C 180.74 81.57 183.92 78.76 186.27 77.36 M 186.11 79.03 C 184.49 79.81 183.95 81.66 183.06 83.08 C 184.18 83.88 185.26 86.09 186.94 85.10 C 189.25 84.42 190.19 82.10 190.25 79.88 C 188.95 79.47 187.46 77.89 186.11 79.03 Z" />
<path fill="#cd2077" opacity="1.00" d=" M 154.65 83.89 C 152.93 79.22 160.95 74.74 163.16 79.80 C 161.34 79.55 159.19 78.06 157.62 79.66 C 156.19 80.62 155.08 83.12 156.69 84.36 C 158.67 86.25 160.96 83.61 162.98 83.03 C 162.22 86.69 155.82 87.91 154.65 83.89 Z" />
<path fill="#cd2077" opacity="1.00" d=" M 168.01 77.95 C 169.50 77.91 171.52 76.82 172.43 78.58 C 171.44 78.73 169.47 79.03 168.48 79.17 C 167.97 81.60 169.69 85.19 166.99 86.61 C 166.90 84.27 166.91 81.93 166.97 79.59 C 166.08 79.65 164.30 79.78 163.41 79.84 C 164.27 78.07 166.39 78.34 168.01 77.95 Z" />
<path fill="#cd2077" opacity="1.00" d=" M 173.10 86.55 C 173.65 83.43 171.42 79.26 174.61 77.15 C 175.23 78.67 175.62 80.21 173.99 81.25 C 176.07 81.52 178.22 80.94 179.42 79.10 C 177.86 79.44 176.41 78.86 175.17 78.01 C 177.03 78.10 179.64 77.11 181.03 78.95 C 181.14 81.25 177.84 81.48 176.28 82.23 C 178.37 83.50 181.09 84.14 182.33 86.45 C 179.60 85.70 177.14 84.29 174.74 82.85 C 174.59 84.28 174.83 86.02 173.10 86.55 Z" />
<path fill="#cd2077" opacity="1.00" d=" M 193.15 77.44 C 195.44 79.43 197.42 81.74 199.80 83.63 C 199.82 81.56 199.64 79.47 200.05 77.43 C 202.21 78.17 200.83 81.33 201.24 83.07 C 200.87 83.92 201.82 86.10 200.50 86.12 C 198.40 84.42 196.49 82.49 194.40 80.77 C 194.00 82.64 195.65 85.71 193.08 86.55 C 192.98 83.51 193.03 80.48 193.15 77.44 Z" />
<path fill="#cd2077" opacity="1.00" d=" M 203.06 77.51 C 203.42 77.70 204.13 78.09 204.49 78.29 C 204.11 80.92 205.94 85.08 203.07 86.52 C 202.96 83.52 202.96 80.51 203.06 77.51 Z" />
<path fill="#cd2077" opacity="1.00" d=" M 206.63 84.28 C 204.53 79.55 212.27 74.73 215.26 79.55 C 213.16 79.68 210.63 77.98 209.02 80.05 C 207.10 81.41 207.51 84.87 210.06 85.18 C 211.67 84.80 213.01 83.78 214.43 82.99 C 214.93 83.45 215.45 83.92 215.96 84.38 C 217.01 81.78 218.66 79.51 220.19 77.19 C 222.06 80.18 224.48 82.95 225.35 86.45 C 223.53 85.95 222.92 84.11 221.97 82.72 C 220.68 82.77 219.40 82.82 218.11 82.87 C 217.39 84.04 216.68 85.22 215.99 86.40 C 215.39 85.66 214.66 85.10 213.79 84.73 C 211.89 86.76 207.87 87.27 206.63 84.28 M 220.16 79.99 C 218.83 80.71 218.80 81.39 220.06 82.06 C 221.39 81.35 221.42 80.66 220.16 79.99 Z" />
<path fill="#cd2077" opacity="1.00" d=" M 173.05 97.11 C 174.31 97.77 174.29 98.44 172.99 99.12 C 171.70 98.44 171.72 97.77 173.05 97.11 Z" />
</g>
<g id="#3857b3ff">
<path fill="#3857b3" opacity="1.00" d=" M 81.18 85.15 C 83.07 82.52 84.89 79.83 86.76 77.19 C 88.33 80.07 90.13 82.81 91.66 85.71 C 91.34 85.82 90.70 86.03 90.38 86.13 C 89.67 84.89 88.95 83.65 88.23 82.42 C 85.24 82.15 83.15 83.92 81.98 86.51 C 79.30 85.61 76.80 84.29 74.39 82.83 C 74.27 83.78 74.02 85.69 73.90 86.64 C 71.44 84.49 73.10 80.65 72.73 77.77 C 74.49 78.47 76.33 78.14 78.11 77.75 C 78.80 77.99 80.18 78.48 80.87 78.72 C 80.05 80.84 78.06 81.81 75.88 82.06 C 77.60 83.17 79.36 84.21 81.18 85.15 M 75.20 79.45 C 71.73 81.76 78.99 81.73 78.59 79.22 C 77.46 78.78 76.33 78.86 75.20 79.45 M 86.07 80.35 C 84.57 83.38 89.46 80.36 86.07 80.35 Z" />
</g>
<g id="#8d6fb4ff">
<path fill="#8d6fb4" opacity="1.00" d=" M 101.93 77.75 C 102.45 77.79 103.48 77.86 103.99 77.90 C 103.84 80.63 103.78 83.36 103.84 86.09 C 103.38 86.10 102.46 86.13 102.00 86.15 C 102.00 83.35 101.99 80.55 101.93 77.75 Z" />
</g>
<g id="#e9edf7ff">
</g>
<g id="#fcf1f6ff">
</g>
<g id="#f7d5e5ff">
<path fill="#f7d5e5" opacity="1.00" d=" M 66.20 80.36 C 67.41 79.72 68.62 81.76 67.75 82.68 C 66.53 83.33 65.32 81.28 66.20 80.36 Z" />
</g>
<g id="#f2f2f9ff">
</g>
<g id="#f6d5e5ff">
<path fill="#f6d5e5" opacity="1.00" d=" M 69.82 86.69 C 72.80 86.77 74.52 90.05 75.56 92.47 C 73.06 91.20 71.38 88.93 69.82 86.69 Z" />
</g>
<g id="#f6d7e6ff">
<path fill="#f6d7e6" opacity="1.00" d=" M 177.61 93.48 C 177.12 92.62 178.68 91.83 179.13 92.75 C 180.75 95.10 182.00 97.73 183.78 100.00 L 182.27 100.00 C 180.54 97.96 179.21 95.62 177.61 93.48 Z" />
</g>
<g id="#f5d2e3ff">
<path fill="#f5d2e3" opacity="1.00" d=" M 79.46 96.24 C 81.62 95.98 82.70 98.56 83.84 100.00 L 82.30 100.00 C 81.40 98.77 79.68 97.79 79.46 96.24 Z" />
</g>
</svg>
