<?xml version="1.0" encoding="UTF-8" ?>
<!DOCTYPE svg PUBLIC "-//W3C//DTD SVG 1.1//EN" "http://www.w3.org/Graphics/SVG/1.1/DTD/svg11.dtd">
<svg width="346pt" height="334pt" viewBox="0 0 346 334" version="1.1" xmlns="http://www.w3.org/2000/svg">
<g id="#000000ff">
<path fill="#000000" opacity="1.00" d=" M 58.41 17.43 C 64.79 14.02 71.66 11.13 79.00 10.92 C 91.67 10.80 104.35 11.11 117.01 10.70 C 164.03 10.68 211.03 10.64 258.05 10.70 C 264.07 10.80 269.97 12.32 275.52 14.61 C 276.89 15.33 278.28 16.03 279.68 16.72 C 280.26 17.17 280.85 17.62 281.44 18.07 C 283.75 19.70 286.00 21.43 288.23 23.17 C 289.69 25.45 291.44 27.52 293.35 29.42 C 293.87 30.33 294.39 31.25 294.91 32.16 C 295.40 32.91 295.90 33.67 296.40 34.42 C 299.32 40.89 301.10 47.86 301.08 54.99 C 301.13 102.52 301.10 150.04 301.11 197.56 C 295.52 197.59 289.92 197.50 284.33 197.67 C 284.49 149.77 284.35 101.89 284.44 53.99 C 284.52 49.62 283.05 45.43 281.47 41.42 C 278.78 37.49 275.34 34.17 271.70 31.13 C 271.12 30.94 269.95 30.57 269.36 30.38 L 269.56 29.75 C 266.11 28.75 262.66 27.43 259.01 27.55 C 199.70 27.68 140.39 27.67 81.07 27.30 C 77.83 27.12 74.63 27.67 71.50 28.44 C 69.45 29.51 67.39 30.54 65.30 31.52 C 63.20 33.64 60.94 35.62 59.00 37.90 C 56.37 41.47 54.93 45.77 53.97 50.06 C 48.47 50.08 42.96 50.07 37.46 50.10 C 38.88 43.18 40.92 36.21 45.00 30.35 C 45.33 29.93 45.97 29.07 46.30 28.64 C 48.45 25.35 51.32 22.56 54.53 20.30 C 55.81 19.33 57.09 18.35 58.41 17.43 Z" />
<path fill="#000000" opacity="1.00" d=" M 37.55 209.00 C 43.04 209.00 48.53 209.00 54.02 209.00 C 54.04 225.68 53.99 242.37 54.04 259.05 C 53.97 263.02 54.96 266.89 56.44 270.55 C 57.94 272.74 59.45 274.93 61.14 276.98 C 63.26 279.13 65.99 280.53 68.40 282.32 C 72.08 283.75 75.92 284.90 79.91 284.83 C 118.28 284.96 156.66 284.73 195.03 284.85 C 202.34 284.48 209.66 284.72 216.98 284.78 C 218.92 286.89 220.96 288.91 223.01 290.92 C 226.62 294.35 229.15 298.78 233.17 301.78 C 222.47 301.34 211.74 301.63 201.04 301.78 C 185.02 301.12 169.00 301.72 152.98 301.59 C 128.64 301.30 104.30 301.52 79.97 301.44 C 73.16 301.37 66.69 298.94 60.49 296.33 C 58.82 295.18 57.14 294.03 55.48 292.86 C 51.95 290.19 48.80 287.02 46.10 283.52 C 44.93 281.85 43.77 280.17 42.65 278.47 C 42.22 277.49 41.78 276.52 41.33 275.55 C 39.03 270.36 37.44 264.75 37.53 259.03 C 37.57 242.35 37.54 225.68 37.55 209.00 Z" />
<path fill="#000000" opacity="1.00" d=" M 341.44 249.01 C 343.84 246.73 344.23 251.94 341.62 251.92 L 341.24 251.63 C 341.29 250.98 341.39 249.67 341.44 249.01 Z" />
</g>
<g id="#11ae21ff">
<path fill="#11ae21" opacity="1.00" d=" M 19.35 60.45 C 19.75 60.42 20.56 60.36 20.97 60.33 C 102.03 60.34 183.09 60.21 264.14 60.27 C 267.89 60.89 272.06 62.60 273.68 66.32 C 275.41 70.31 274.88 74.75 274.94 78.98 C 274.94 113.99 274.92 148.99 274.96 184.00 C 274.99 187.67 274.33 191.80 271.28 194.24 C 268.67 197.04 264.52 196.70 261.03 196.90 C 181.36 196.89 101.69 196.88 22.03 196.90 C 18.19 196.69 13.53 196.38 11.07 192.96 C 9.22 190.76 8.43 187.86 8.53 185.02 C 8.57 147.00 8.54 108.98 8.55 70.97 C 8.76 65.19 13.73 60.82 19.35 60.45 M 107.51 85.69 C 99.12 87.18 90.43 85.01 82.12 86.96 C 77.62 85.22 72.25 84.91 67.77 86.81 C 64.97 88.22 67.84 90.71 69.21 91.98 C 67.64 95.66 66.20 99.50 63.53 102.56 C 61.55 99.31 60.05 95.81 58.63 92.29 C 59.64 90.97 61.24 89.82 61.06 87.95 C 57.90 84.98 53.02 85.75 49.03 85.65 C 45.68 85.83 40.04 86.33 40.91 91.06 C 45.35 91.96 46.27 96.64 47.98 100.12 C 50.87 106.27 53.38 112.61 56.51 118.64 C 58.00 121.82 62.94 121.28 64.18 118.15 C 68.56 109.79 72.42 101.14 76.86 92.79 C 77.74 90.82 80.25 90.85 81.96 89.99 C 83.69 90.92 85.82 91.88 85.80 94.18 C 86.43 101.09 86.56 108.17 85.29 115.02 C 84.13 115.70 82.97 116.39 81.81 117.07 C 82.38 118.06 82.24 119.93 83.81 119.86 C 93.32 120.32 102.91 119.45 112.38 120.83 C 114.67 117.83 116.81 114.04 116.07 110.16 C 115.74 108.37 114.02 107.71 112.44 108.35 C 110.77 110.05 109.98 112.59 107.87 113.86 C 104.91 115.12 101.45 115.46 98.36 114.48 C 96.86 111.57 97.36 108.14 97.93 105.04 C 99.01 105.25 100.07 105.52 101.12 105.87 C 102.08 107.45 102.34 109.50 103.87 110.71 C 107.79 109.23 107.37 104.36 107.38 100.95 C 107.14 98.94 107.17 95.94 104.99 95.07 C 101.78 93.92 102.21 98.22 101.20 100.13 C 100.23 100.15 98.31 100.19 97.35 100.21 C 97.08 97.84 96.78 95.45 97.10 93.07 C 98.34 90.49 101.75 91.45 104.02 91.42 C 106.91 91.30 108.44 93.88 110.27 95.64 C 111.47 95.97 113.12 96.14 113.62 94.69 C 114.89 91.88 113.99 88.29 112.06 86.00 C 110.88 84.58 109.02 85.62 107.51 85.69 M 119.17 86.26 C 117.34 86.49 117.05 88.38 116.72 89.84 C 118.11 91.05 120.35 91.90 120.28 94.09 C 120.54 99.72 120.40 105.37 120.36 111.01 C 120.66 113.54 118.34 114.92 116.69 116.31 C 117.02 118.42 118.30 120.15 120.57 120.29 C 125.34 120.88 130.85 121.61 135.14 118.99 C 136.29 116.37 132.93 115.15 132.47 112.85 C 132.19 110.47 132.39 108.07 132.49 105.68 C 137.36 105.97 137.19 111.39 138.43 114.88 C 139.21 117.88 141.58 120.71 144.86 120.91 C 148.82 121.28 154.94 121.59 155.71 116.40 C 154.62 115.78 153.54 115.13 152.50 114.44 C 151.38 112.07 151.40 109.29 150.18 106.95 C 149.00 105.03 146.88 104.02 145.08 102.78 C 149.27 100.31 151.44 94.70 148.63 90.39 C 145.46 85.54 139.02 85.82 133.93 86.02 C 129.01 86.43 124.05 85.56 119.17 86.26 M 41.61 146.04 C 41.06 148.90 45.23 149.40 45.30 152.00 C 45.59 158.38 45.52 164.83 44.67 171.16 C 44.41 173.47 40.10 174.25 41.78 176.92 C 45.69 179.31 50.61 178.47 54.71 177.02 C 54.72 176.38 54.76 175.09 54.77 174.44 C 50.02 172.02 52.15 166.04 52.18 161.82 C 55.60 165.86 56.74 171.17 59.44 175.64 C 59.91 176.62 60.71 177.11 61.85 177.09 C 65.31 172.54 65.87 166.31 70.05 162.24 C 70.49 165.39 70.43 168.59 70.04 171.75 C 68.90 173.03 67.44 174.22 67.26 176.05 C 69.76 178.66 73.70 178.31 77.00 178.40 C 80.22 178.28 84.39 178.29 85.73 174.70 C 84.45 173.25 82.05 172.27 82.07 170.04 C 81.77 164.01 81.30 157.92 82.10 151.91 C 82.45 149.67 84.83 148.34 85.09 146.08 C 84.01 143.26 80.55 143.25 78.04 143.16 C 75.50 143.16 72.24 143.22 70.80 145.72 C 68.23 149.75 66.72 154.35 64.04 158.32 C 60.62 154.60 59.15 149.68 56.54 145.45 C 55.10 142.63 51.48 143.27 48.87 143.19 C 46.36 143.41 42.94 143.50 41.61 146.04 M 99.78 144.71 C 98.13 147.73 98.81 151.43 97.50 154.59 C 95.38 159.95 92.95 165.21 90.35 170.35 C 89.56 172.20 87.59 172.90 85.98 173.82 C 85.77 174.93 85.57 176.05 85.38 177.16 C 89.66 178.44 94.37 179.03 98.67 177.53 C 100.12 177.04 100.14 175.29 100.67 174.11 C 99.41 173.49 98.16 172.87 96.90 172.25 C 97.64 171.13 98.36 169.61 99.99 169.85 C 103.56 169.83 107.74 169.04 110.50 171.86 C 109.22 172.60 107.94 173.32 106.66 174.04 C 107.16 175.35 107.22 177.45 109.00 177.69 C 113.94 178.67 119.11 178.67 124.07 177.85 C 125.75 177.72 127.13 176.58 127.76 175.05 C 127.22 172.91 124.50 172.48 123.50 170.60 C 121.37 166.61 119.67 162.40 117.55 158.39 C 115.17 153.90 113.37 148.93 109.76 145.23 C 107.33 142.43 102.44 142.07 99.78 144.71 M 142.48 143.65 C 135.02 145.47 128.51 152.07 128.21 159.96 C 127.76 168.59 134.60 176.67 143.03 178.12 C 147.82 179.38 152.60 177.60 157.03 175.90 C 160.88 174.98 163.52 170.01 161.58 166.45 C 159.82 165.15 158.31 167.11 156.76 167.80 C 153.08 170.23 147.69 169.55 144.72 166.29 C 142.15 163.56 141.18 159.67 141.19 156.01 C 141.30 153.01 143.66 149.81 146.97 150.42 C 151.30 150.34 153.25 154.57 155.53 157.47 C 157.62 160.40 162.74 158.52 162.94 155.06 C 163.27 151.75 162.90 147.31 159.68 145.54 C 153.89 145.15 148.36 141.75 142.48 143.65 M 217.49 143.60 C 213.22 144.63 209.16 147.05 206.68 150.73 C 202.40 156.89 202.75 165.76 207.32 171.67 C 215.09 181.96 233.00 180.22 239.09 169.03 C 243.99 160.22 239.02 148.08 229.84 144.42 C 225.96 142.81 221.57 142.87 217.49 143.60 M 163.91 147.37 C 165.23 148.62 167.55 149.41 167.48 151.56 C 167.81 157.39 167.69 163.25 167.55 169.08 C 167.62 171.40 165.35 172.59 163.93 174.01 C 164.33 175.36 164.70 177.06 166.31 177.42 C 171.19 178.75 176.58 178.86 181.40 177.28 C 184.54 175.48 180.88 172.86 179.78 171.00 C 179.32 168.42 179.52 165.80 179.75 163.21 C 184.86 163.83 184.45 169.52 185.92 173.20 C 186.82 176.31 189.72 178.55 192.95 178.71 C 196.74 179.14 201.99 178.67 203.02 174.15 C 201.83 173.35 200.55 172.68 199.48 171.72 C 198.52 168.98 198.54 165.80 196.66 163.46 C 195.36 162.21 193.76 161.34 192.29 160.34 C 196.44 157.92 198.60 152.34 195.93 148.06 C 192.42 142.98 185.47 143.13 179.97 143.54 C 175.36 144.09 170.61 142.66 166.09 143.95 C 164.44 144.33 164.32 146.03 163.91 147.37 Z" />
<path fill="#11ae21" opacity="1.00" d=" M 131.95 100.64 C 131.99 97.58 131.84 94.45 132.80 91.50 C 136.79 90.72 137.85 95.77 136.55 98.58 C 136.01 100.63 133.54 100.12 131.95 100.64 Z" />
<path fill="#11ae21" opacity="1.00" d=" M 179.88 148.60 C 182.64 148.97 184.87 151.10 184.23 154.07 C 184.68 157.06 181.72 158.20 179.32 158.45 C 179.29 155.16 179.38 151.86 179.88 148.60 Z" />
<path fill="#11ae21" opacity="1.00" d=" M 218.35 151.37 C 220.47 149.41 223.25 151.52 224.53 153.42 C 227.15 157.40 228.41 162.33 228.17 167.07 C 228.18 169.74 224.89 172.15 222.55 170.37 C 219.21 167.96 218.01 163.70 217.04 159.90 C 216.54 157.11 215.78 153.41 218.35 151.37 Z" />
<path fill="#11ae21" opacity="1.00" d=" M 100.23 163.25 C 101.09 160.83 102.00 158.40 103.47 156.28 C 104.90 158.49 106.10 160.85 107.20 163.25 C 104.88 163.36 102.55 163.35 100.23 163.25 Z" />
<path fill="#11ae21" opacity="1.00" d=" M 234.56 215.21 C 235.01 210.70 239.86 208.40 243.95 208.46 C 263.63 208.42 283.31 208.43 302.99 208.46 C 307.28 208.63 312.77 210.18 313.67 215.07 C 314.05 226.25 313.76 237.45 313.91 248.64 C 323.07 249.31 332.28 248.23 341.44 249.01 C 341.39 249.67 341.29 250.98 341.24 251.63 C 337.72 257.22 332.44 261.33 328.29 266.39 C 313.96 282.37 299.41 298.13 285.08 314.10 C 281.26 317.77 278.14 322.12 274.08 325.56 C 273.47 325.10 272.87 324.65 272.27 324.20 C 265.51 315.89 257.69 308.51 250.78 300.34 C 235.22 283.48 219.82 266.47 204.44 249.43 C 214.37 248.47 224.37 248.69 234.33 248.81 C 234.56 237.61 234.31 226.40 234.56 215.21 Z" />
</g>
<g id="#ffffffff">
<path fill="#ffffff" opacity="1.00" d=" M 107.51 85.69 C 109.02 85.62 110.88 84.58 112.06 86.00 C 113.99 88.29 114.89 91.88 113.62 94.69 C 113.12 96.14 111.47 95.97 110.27 95.64 C 108.44 93.88 106.91 91.30 104.02 91.42 C 101.75 91.45 98.34 90.49 97.10 93.07 C 96.78 95.45 97.08 97.84 97.35 100.21 C 98.31 100.19 100.23 100.15 101.20 100.13 C 102.21 98.22 101.78 93.92 104.99 95.07 C 107.17 95.94 107.14 98.94 107.38 100.95 C 107.37 104.36 107.79 109.23 103.87 110.71 C 102.34 109.50 102.08 107.45 101.12 105.87 C 100.07 105.52 99.01 105.25 97.93 105.04 C 97.36 108.14 96.86 111.57 98.36 114.48 C 101.45 115.46 104.91 115.12 107.87 113.86 C 109.98 112.59 110.77 110.05 112.44 108.35 C 114.02 107.71 115.74 108.37 116.07 110.16 C 116.81 114.04 114.67 117.83 112.38 120.83 C 102.91 119.45 93.32 120.32 83.81 119.86 C 82.24 119.93 82.38 118.06 81.81 117.07 C 82.97 116.39 84.13 115.70 85.29 115.02 C 86.56 108.17 86.43 101.09 85.80 94.18 C 85.82 91.88 83.69 90.92 81.96 89.99 C 80.25 90.85 77.74 90.82 76.86 92.79 C 72.42 101.14 68.56 109.79 64.18 118.15 C 62.94 121.28 58.00 121.82 56.51 118.64 C 53.38 112.61 50.87 106.27 47.98 100.12 C 46.27 96.64 45.35 91.96 40.91 91.06 C 40.04 86.33 45.68 85.83 49.03 85.65 C 53.02 85.75 57.90 84.98 61.06 87.95 C 61.24 89.82 59.64 90.97 58.63 92.29 C 60.05 95.81 61.55 99.31 63.53 102.56 C 66.20 99.50 67.64 95.66 69.21 91.98 C 67.84 90.71 64.97 88.22 67.77 86.81 C 72.25 84.91 77.62 85.22 82.12 86.96 C 90.43 85.01 99.12 87.18 107.51 85.69 Z" />
<path fill="#ffffff" opacity="1.00" d=" M 119.17 86.26 C 124.05 85.56 129.01 86.43 133.93 86.02 C 139.02 85.82 145.46 85.54 148.63 90.39 C 151.44 94.70 149.27 100.31 145.08 102.78 C 146.88 104.02 149.00 105.03 150.18 106.95 C 151.40 109.29 151.38 112.07 152.50 114.44 C 153.54 115.13 154.62 115.78 155.71 116.40 C 154.94 121.59 148.82 121.28 144.86 120.91 C 141.58 120.71 139.21 117.88 138.43 114.88 C 137.19 111.39 137.36 105.97 132.49 105.68 C 132.39 108.07 132.19 110.47 132.47 112.85 C 132.93 115.15 136.29 116.37 135.14 118.99 C 130.85 121.61 125.34 120.88 120.57 120.29 C 118.30 120.15 117.02 118.42 116.69 116.31 C 118.34 114.92 120.66 113.54 120.36 111.01 C 120.40 105.37 120.54 99.72 120.28 94.09 C 120.35 91.90 118.11 91.05 116.72 89.84 C 117.05 88.38 117.34 86.49 119.17 86.26 M 131.95 100.64 C 133.54 100.12 136.01 100.63 136.55 98.58 C 137.85 95.77 136.79 90.72 132.80 91.50 C 131.84 94.45 131.99 97.58 131.95 100.64 Z" />
<path fill="#ffffff" opacity="1.00" d=" M 41.61 146.04 C 42.94 143.50 46.36 143.41 48.87 143.19 C 51.48 143.27 55.10 142.63 56.54 145.45 C 59.15 149.68 60.62 154.60 64.04 158.32 C 66.72 154.35 68.23 149.75 70.80 145.72 C 72.24 143.22 75.50 143.16 78.04 143.16 C 80.55 143.25 84.01 143.26 85.09 146.08 C 84.83 148.34 82.45 149.67 82.10 151.91 C 81.30 157.92 81.77 164.01 82.07 170.04 C 82.05 172.27 84.45 173.25 85.73 174.70 C 84.39 178.29 80.22 178.28 77.00 178.40 C 73.70 178.31 69.76 178.66 67.26 176.05 C 67.44 174.22 68.90 173.03 70.04 171.75 C 70.43 168.59 70.49 165.39 70.05 162.24 C 65.87 166.31 65.31 172.54 61.85 177.09 C 60.71 177.11 59.91 176.62 59.44 175.64 C 56.74 171.17 55.60 165.86 52.18 161.82 C 52.15 166.04 50.02 172.02 54.77 174.44 C 54.76 175.09 54.72 176.38 54.71 177.02 C 50.61 178.47 45.69 179.31 41.78 176.92 C 40.10 174.25 44.41 173.47 44.67 171.16 C 45.52 164.83 45.59 158.38 45.30 152.00 C 45.23 149.40 41.06 148.90 41.61 146.04 Z" />
<path fill="#ffffff" opacity="1.00" d=" M 99.78 144.71 C 102.44 142.07 107.33 142.43 109.76 145.23 C 113.37 148.93 115.17 153.90 117.55 158.39 C 119.67 162.40 121.37 166.61 123.50 170.60 C 124.50 172.48 127.22 172.91 127.76 175.05 C 127.13 176.58 125.75 177.72 124.07 177.85 C 119.11 178.67 113.94 178.67 109.00 177.69 C 107.22 177.45 107.16 175.35 106.66 174.04 C 107.94 173.32 109.22 172.60 110.50 171.86 C 107.74 169.04 103.56 169.83 99.99 169.85 C 98.36 169.61 97.64 171.13 96.90 172.25 C 98.16 172.87 99.41 173.49 100.67 174.11 C 100.14 175.29 100.12 177.04 98.67 177.53 C 94.37 179.03 89.66 178.44 85.38 177.16 C 85.57 176.05 85.77 174.93 85.98 173.82 C 87.59 172.90 89.56 172.20 90.35 170.35 C 92.95 165.21 95.38 159.95 97.50 154.59 C 98.81 151.43 98.13 147.73 99.78 144.71 M 100.23 163.25 C 102.55 163.35 104.88 163.36 107.20 163.25 C 106.10 160.85 104.90 158.49 103.47 156.28 C 102.00 158.40 101.09 160.83 100.23 163.25 Z" />
<path fill="#ffffff" opacity="1.00" d=" M 142.48 143.65 C 148.36 141.75 153.89 145.15 159.68 145.54 C 162.90 147.31 163.27 151.75 162.94 155.06 C 162.74 158.52 157.62 160.40 155.53 157.47 C 153.25 154.57 151.30 150.34 146.97 150.42 C 143.66 149.81 141.30 153.01 141.19 156.01 C 141.18 159.67 142.15 163.56 144.72 166.29 C 147.69 169.55 153.08 170.23 156.76 167.80 C 158.31 167.11 159.82 165.15 161.58 166.45 C 163.52 170.01 160.88 174.98 157.03 175.90 C 152.60 177.60 147.82 179.38 143.03 178.12 C 134.60 176.67 127.76 168.59 128.21 159.96 C 128.51 152.07 135.02 145.47 142.48 143.65 Z" />
<path fill="#ffffff" opacity="1.00" d=" M 217.49 143.60 C 221.57 142.87 225.96 142.81 229.84 144.42 C 239.02 148.08 243.99 160.22 239.09 169.03 C 233.00 180.22 215.09 181.96 207.32 171.67 C 202.75 165.76 202.40 156.89 206.68 150.73 C 209.16 147.05 213.22 144.63 217.49 143.60 M 218.35 151.37 C 215.78 153.41 216.54 157.11 217.04 159.90 C 218.01 163.70 219.21 167.96 222.55 170.37 C 224.89 172.15 228.18 169.74 228.17 167.07 C 228.41 162.33 227.15 157.40 224.53 153.42 C 223.25 151.52 220.47 149.41 218.35 151.37 Z" />
<path fill="#ffffff" opacity="1.00" d=" M 163.91 147.37 C 164.32 146.03 164.44 144.33 166.09 143.95 C 170.61 142.66 175.36 144.09 179.97 143.54 C 185.47 143.13 192.42 142.98 195.93 148.06 C 198.60 152.34 196.44 157.92 192.29 160.34 C 193.76 161.34 195.36 162.21 196.66 163.46 C 198.54 165.80 198.52 168.98 199.48 171.72 C 200.55 172.68 201.83 173.35 203.02 174.15 C 201.99 178.67 196.74 179.14 192.95 178.71 C 189.72 178.55 186.82 176.31 185.92 173.20 C 184.45 169.52 184.86 163.83 179.75 163.21 C 179.52 165.80 179.32 168.42 179.78 171.00 C 180.88 172.86 184.54 175.48 181.40 177.28 C 176.58 178.86 171.19 178.75 166.31 177.42 C 164.70 177.06 164.33 175.36 163.93 174.01 C 165.35 172.59 167.62 171.40 167.55 169.08 C 167.69 163.25 167.81 157.39 167.48 151.56 C 167.55 149.41 165.23 148.62 163.91 147.37 M 179.88 148.60 C 179.38 151.86 179.29 155.16 179.32 158.45 C 181.72 158.20 184.68 157.06 184.23 154.07 C 184.87 151.10 182.64 148.97 179.88 148.60 Z" />
</g>
</svg>
