<?xml version="1.0" encoding="UTF-8" ?>
<!DOCTYPE svg PUBLIC "-//W3C//DTD SVG 1.1//EN" "http://www.w3.org/Graphics/SVG/1.1/DTD/svg11.dtd">
<svg width="346pt" height="334pt" viewBox="0 0 346 334" version="1.1" xmlns="http://www.w3.org/2000/svg">
<g id="#000000ff">
<path fill="#000000" opacity="1.00" d=" M 71.24 12.13 C 78.33 10.12 85.76 11.14 93.02 10.91 C 148.00 10.53 202.98 10.69 257.96 10.70 C 264.00 10.78 269.93 12.30 275.50 14.60 C 276.88 15.32 278.28 16.03 279.69 16.72 C 280.26 17.18 280.83 17.64 281.40 18.10 C 283.18 19.33 284.93 20.62 286.71 21.86 L 286.38 21.93 C 287.49 22.60 288.38 23.49 289.06 24.60 L 289.11 24.25 C 290.64 26.39 292.30 28.43 293.94 30.48 C 294.78 31.81 295.61 33.14 296.45 34.47 C 296.90 35.69 297.36 36.91 297.81 38.13 C 300.38 43.74 300.96 49.98 301.11 56.07 C 301.12 103.22 301.07 150.38 301.14 197.53 C 295.53 197.61 289.93 197.50 284.32 197.67 C 284.49 149.79 284.35 101.92 284.43 54.04 C 284.53 49.66 283.08 45.47 281.47 41.46 C 279.05 37.77 275.78 34.79 272.62 31.75 C 270.48 30.78 268.39 29.73 266.33 28.61 C 263.59 28.00 260.83 27.45 258.01 27.55 C 199.00 27.69 140.00 27.67 80.99 27.30 C 77.78 27.11 74.62 27.68 71.52 28.44 C 69.47 29.51 67.39 30.54 65.29 31.51 C 63.01 33.78 60.74 36.06 58.45 38.33 C 56.53 42.06 54.75 45.91 53.98 50.07 C 48.47 50.08 42.97 50.07 37.46 50.10 C 38.55 44.34 40.39 38.74 42.92 33.46 C 43.66 32.45 44.39 31.43 45.09 30.40 C 45.39 29.95 45.99 29.07 46.29 28.63 C 48.46 25.34 51.32 22.53 54.54 20.29 C 55.81 19.32 57.08 18.35 58.39 17.43 C 62.60 15.49 66.63 13.02 71.24 12.13 Z" />
<path fill="#000000" opacity="1.00" d=" M 37.55 209.00 C 43.04 209.00 48.53 209.00 54.02 209.00 C 54.04 225.68 53.99 242.36 54.04 259.03 C 53.96 263.02 54.92 266.91 56.45 270.57 C 58.10 272.89 59.63 275.33 61.56 277.44 C 63.66 279.30 66.14 280.66 68.41 282.32 C 72.10 283.77 75.97 284.90 79.98 284.83 C 118.30 284.96 156.63 284.73 194.95 284.85 C 202.30 284.49 209.64 284.72 216.99 284.78 C 220.25 288.47 224.12 291.60 227.13 295.52 C 228.88 297.86 230.90 299.98 233.20 301.78 C 222.46 301.34 211.71 301.63 200.97 301.78 C 181.66 301.02 162.34 301.94 143.03 301.48 C 122.02 301.40 101.01 301.48 80.01 301.44 C 73.18 301.38 66.69 298.95 60.49 296.32 C 58.81 295.18 57.14 294.03 55.49 292.86 C 52.30 290.52 49.60 287.61 46.93 284.72 C 45.75 282.94 44.48 281.23 43.27 279.48 C 42.62 278.17 41.98 276.86 41.32 275.56 C 39.02 270.36 37.45 264.74 37.53 259.02 C 37.57 242.35 37.54 225.67 37.55 209.00 Z" />
</g>
<g id="#de0106ff">
<path fill="#de0106" opacity="1.00" d=" M 10.83 66.00 C 12.93 61.35 18.52 60.71 23.02 60.87 C 80.35 61.08 137.69 60.62 195.03 60.67 C 201.68 60.26 208.32 61.01 214.97 60.83 C 231.00 60.57 247.03 60.73 263.06 60.68 C 265.87 60.55 268.50 61.71 271.01 62.83 C 272.50 65.74 275.09 68.31 274.87 71.83 C 274.95 106.23 274.88 140.64 274.90 175.04 C 274.82 180.58 275.55 186.35 273.33 191.61 C 272.12 192.82 270.92 194.04 269.73 195.27 C 269.10 195.49 267.86 195.94 267.24 196.16 C 262.87 196.97 258.43 196.95 254.01 196.88 C 176.66 196.87 99.30 196.88 21.95 196.88 C 19.10 196.60 15.74 196.66 13.58 194.46 C 11.57 192.45 9.12 190.19 9.07 187.14 C 9.03 150.75 9.06 114.37 9.06 77.98 C 9.17 73.95 8.31 69.52 10.83 66.00 M 62.13 86.99 C 57.67 85.11 52.34 84.95 47.84 86.72 C 44.93 88.12 47.61 90.73 49.21 91.91 C 47.67 95.58 46.12 99.29 43.78 102.54 C 41.49 99.44 40.10 95.81 38.65 92.28 C 40.20 90.93 42.50 87.89 39.57 86.72 C 33.61 84.98 26.74 84.88 21.08 87.72 C 21.06 88.57 21.01 90.25 20.99 91.09 C 22.41 91.88 24.33 92.23 25.03 93.88 C 29.08 102.04 32.36 110.58 36.50 118.70 C 38.00 121.80 42.92 121.33 44.16 118.23 C 48.56 109.87 52.41 101.22 56.84 92.87 C 57.68 90.83 60.22 90.89 61.95 90.04 C 63.68 90.93 65.80 91.87 65.77 94.16 C 66.42 101.08 66.58 108.18 65.25 115.03 C 64.23 115.61 63.22 116.19 62.20 116.77 C 62.26 117.77 62.33 118.76 62.41 119.76 C 72.39 120.42 82.45 119.40 92.40 120.85 C 94.94 117.48 98.33 111.79 94.68 108.16 C 92.02 107.42 91.11 110.27 89.81 111.94 C 87.96 114.93 83.92 115.01 80.80 115.00 C 75.88 114.96 77.56 108.30 77.91 105.12 C 78.98 105.29 80.05 105.53 81.09 105.83 C 82.10 107.43 82.23 109.62 83.91 110.73 C 87.45 109.41 87.40 105.12 87.45 101.99 C 87.53 98.90 86.92 94.12 82.71 94.90 C 82.23 96.65 81.76 98.39 81.26 100.13 C 80.29 100.14 78.34 100.17 77.37 100.19 C 77.05 97.69 76.97 95.18 76.88 92.66 C 79.44 90.96 82.65 91.15 85.53 91.71 C 87.82 92.05 88.85 94.38 90.14 96.00 C 91.23 95.89 92.29 95.66 93.31 95.31 C 95.07 92.43 94.14 88.44 92.06 85.97 C 91.08 84.70 89.49 85.42 88.19 85.56 C 79.60 87.31 70.63 84.89 62.13 86.99 M 99.20 86.24 C 97.29 86.43 97.03 88.38 96.74 89.91 C 98.12 91.08 100.32 91.91 100.26 94.07 C 100.51 99.71 100.37 105.37 100.34 111.02 C 100.65 113.51 98.36 114.87 96.72 116.23 C 97.00 118.01 97.79 119.91 99.84 120.12 C 105.03 121.25 110.68 121.21 115.64 119.14 C 115.62 115.94 111.87 114.34 112.38 111.07 C 112.34 109.28 112.43 107.49 112.53 105.70 C 113.66 106.12 114.90 106.35 115.90 107.08 C 117.83 110.52 117.62 114.81 119.92 118.09 C 121.24 120.04 123.60 121.03 125.92 121.01 C 129.07 121.07 132.86 121.37 135.13 118.70 C 136.55 116.19 133.62 115.29 132.20 113.91 C 131.55 111.77 131.31 109.53 130.47 107.46 C 129.44 105.19 127.05 104.10 125.09 102.79 C 128.34 100.63 130.80 96.97 129.68 92.91 C 128.52 87.29 121.96 85.49 116.97 85.97 C 111.05 86.37 105.09 85.66 99.20 86.24 M 22.18 145.02 C 20.01 147.64 23.82 149.24 25.14 151.03 C 25.72 157.43 25.42 163.92 24.80 170.31 C 24.94 172.95 21.59 173.62 21.17 176.00 C 23.88 179.37 29.10 178.62 32.84 177.70 C 34.48 177.51 34.77 175.85 35.06 174.54 C 34.04 173.72 32.91 173.01 32.05 172.02 C 31.55 168.65 31.83 165.23 32.17 161.86 C 36.57 166.33 36.40 174.01 41.79 177.50 C 45.06 172.69 45.91 166.51 50.04 162.27 C 50.47 165.40 50.42 168.57 50.01 171.70 C 48.83 173.05 47.77 174.51 46.82 176.04 C 51.16 179.14 56.87 178.72 61.86 177.90 C 63.83 177.84 64.89 176.21 65.77 174.70 C 64.49 173.25 62.08 172.25 62.06 170.03 C 61.80 164.01 61.33 157.94 62.10 151.94 C 62.43 149.69 64.91 148.39 65.09 146.09 C 64.29 143.60 61.34 143.29 59.12 143.18 C 56.44 143.16 53.10 142.87 51.18 145.13 C 48.33 149.24 46.87 154.13 44.04 158.26 C 40.94 154.90 39.42 150.54 37.26 146.58 C 36.47 145.27 35.61 143.57 33.88 143.42 C 30.00 143.01 25.57 142.70 22.18 145.02 M 79.76 144.68 C 78.29 147.17 78.73 150.22 77.97 152.93 C 76.88 156.91 74.86 160.54 73.24 164.32 C 71.49 167.91 70.30 172.47 66.00 173.79 C 65.78 174.90 65.56 176.02 65.35 177.15 C 69.38 178.42 73.76 178.99 77.88 177.81 C 79.02 177.45 80.97 176.57 80.39 175.04 C 80.39 173.23 77.82 173.01 76.81 171.89 C 79.90 168.16 85.40 170.11 89.57 170.49 C 89.60 171.00 89.67 172.01 89.70 172.52 C 88.99 172.83 87.56 173.44 86.84 173.75 C 87.10 175.28 87.05 177.52 89.09 177.72 C 94.50 178.72 100.24 178.87 105.59 177.46 C 106.78 176.77 108.85 175.00 107.09 173.78 C 102.35 171.13 101.43 165.43 98.91 161.06 C 95.99 155.73 94.02 149.70 89.78 145.22 C 87.35 142.40 82.44 142.08 79.76 144.68 M 108.12 144.53 C 106.62 147.57 109.67 148.93 111.43 150.79 C 112.78 154.33 112.26 158.23 112.39 161.95 C 112.22 166.06 113.45 171.42 108.88 173.56 C 108.32 178.64 114.59 178.58 118.10 178.34 C 120.13 177.97 123.58 177.57 123.65 174.90 C 124.02 173.05 121.82 172.56 120.76 171.58 C 119.73 168.30 119.72 164.78 120.87 161.54 C 128.60 166.56 134.04 174.59 142.28 178.84 C 143.36 177.41 144.54 175.90 144.58 174.03 C 145.21 166.71 144.50 159.34 144.96 152.01 C 145.01 149.93 147.19 149.05 148.54 147.88 C 148.56 147.06 148.59 145.42 148.61 144.60 C 144.23 142.77 138.65 142.19 134.43 144.64 C 132.82 147.14 135.65 148.59 137.06 150.21 C 138.05 152.51 137.46 155.09 137.30 157.49 C 131.01 153.76 126.29 148.00 120.39 143.76 C 116.43 142.49 111.99 143.13 108.12 144.53 M 149.89 145.26 C 148.62 147.60 151.36 149.08 152.56 150.72 C 152.69 155.49 152.51 160.26 152.63 165.04 C 152.73 168.74 154.13 172.51 157.04 174.91 C 160.64 177.87 165.52 178.45 170.02 178.58 C 175.49 178.44 181.95 177.09 184.82 171.87 C 188.23 165.11 185.81 157.29 186.81 150.09 C 188.27 148.52 190.16 147.25 190.43 144.93 C 185.77 142.44 180.04 142.63 175.22 144.55 C 175.22 145.51 175.23 146.47 175.24 147.44 C 176.51 148.29 177.88 149.04 178.96 150.15 C 179.42 154.05 179.09 158.00 179.20 161.93 C 179.22 164.42 179.33 167.40 177.25 169.20 C 174.90 170.95 171.53 171.30 168.86 170.08 C 166.08 168.58 165.30 165.20 165.08 162.30 C 164.91 158.12 164.71 153.87 165.68 149.77 C 166.85 149.19 168.02 148.61 169.20 148.03 C 169.09 145.51 167.45 143.61 164.87 143.51 C 159.94 143.19 154.17 142.22 149.89 145.26 M 204.74 144.71 C 203.09 147.66 203.80 151.27 202.53 154.37 C 200.51 159.64 198.07 164.75 195.61 169.84 C 194.63 172.30 191.96 173.18 189.95 174.60 C 190.51 178.97 195.86 178.31 199.12 178.41 C 201.51 178.25 206.37 177.81 205.25 174.33 C 204.10 173.23 200.71 171.84 203.30 170.22 C 206.95 169.30 210.84 169.86 214.51 170.45 C 214.56 170.96 214.66 172.00 214.71 172.52 C 213.99 172.84 212.53 173.48 211.81 173.80 C 212.12 175.13 211.80 176.97 213.42 177.53 C 217.57 178.69 221.94 178.50 226.20 178.30 C 228.66 178.05 231.75 177.82 232.80 175.11 C 232.73 173.09 230.37 172.74 229.05 171.77 C 225.58 164.63 222.25 157.42 218.53 150.41 C 217.00 147.78 215.25 145.05 212.53 143.51 C 210.01 142.58 206.71 142.65 204.74 144.71 M 235.21 144.23 C 233.35 144.63 232.73 146.46 232.60 148.14 C 233.97 148.80 235.42 149.36 236.70 150.20 C 237.76 156.70 237.39 163.38 237.24 169.94 C 237.44 172.50 234.62 173.31 233.22 174.93 C 233.16 176.57 234.21 177.79 235.89 177.74 C 242.91 178.15 249.99 177.36 256.99 178.16 C 258.49 178.20 260.37 179.00 261.59 177.68 C 264.07 175.05 265.46 171.02 264.46 167.47 C 263.94 165.73 262.06 165.44 260.53 165.25 C 259.28 167.52 258.84 171.01 255.84 171.66 C 253.64 172.57 249.61 172.36 249.56 169.27 C 249.17 163.52 249.44 157.74 249.42 151.98 C 249.01 149.54 251.68 148.77 253.23 147.66 C 252.82 146.21 253.03 144.03 250.99 143.98 C 245.86 142.81 240.28 142.70 235.21 144.23 Z" />
<path fill="#de0106" opacity="1.00" d=" M 111.94 100.59 C 111.92 97.44 112.11 94.28 112.74 91.19 C 116.65 91.25 117.96 95.57 116.50 98.66 C 115.87 100.59 113.49 100.16 111.94 100.59 Z" />
<path fill="#de0106" opacity="1.00" d=" M 80.27 163.23 C 81.11 160.83 82.01 158.41 83.47 156.30 C 84.89 158.51 86.07 160.85 87.15 163.23 C 84.86 163.34 82.56 163.33 80.27 163.23 Z" />
<path fill="#de0106" opacity="1.00" d=" M 208.19 156.26 C 209.87 158.36 211.07 160.78 212.17 163.23 C 209.86 163.34 207.56 163.33 205.26 163.23 C 206.09 160.85 207.02 158.50 208.19 156.26 Z" />
<path fill="#de0106" opacity="1.00" d=" M 236.19 212.92 C 237.53 209.51 241.77 208.87 244.99 208.88 C 264.67 208.90 284.36 208.86 304.04 208.89 C 307.98 208.85 311.75 211.02 313.34 214.67 C 313.19 226.08 313.63 237.50 313.53 248.91 C 323.58 249.27 333.64 248.95 343.69 249.10 C 339.23 253.83 334.29 258.13 330.43 263.40 C 324.21 269.23 319.32 276.25 312.99 281.97 C 310.10 286.36 305.92 289.60 302.59 293.61 C 298.64 298.96 293.20 302.99 289.43 308.50 C 283.98 313.44 279.97 319.70 274.34 324.47 C 274.37 324.85 274.44 325.60 274.47 325.98 C 272.83 323.65 270.83 321.62 268.91 319.53 C 265.93 314.88 260.95 311.92 258.10 307.17 L 257.07 308.09 L 258.19 305.95 L 257.00 306.52 C 254.19 302.30 249.77 299.47 247.02 295.19 L 247.08 295.66 C 244.46 291.66 240.39 288.92 237.61 285.05 C 234.53 280.67 229.82 277.71 227.01 273.13 L 227.05 273.65 C 224.08 269.00 219.09 266.08 216.26 261.32 C 213.06 257.36 208.43 254.55 206.15 249.89 C 205.55 249.73 204.34 249.41 203.74 249.25 C 214.06 248.92 224.39 249.11 234.71 249.08 C 234.85 237.66 234.80 226.25 234.93 214.83 C 235.16 214.19 235.62 212.92 235.85 212.28 L 236.19 212.92 Z" />
</g>
<g id="#ffffffff">
<path fill="#ffffff" opacity="1.00" d=" M 62.13 86.99 C 70.63 84.89 79.60 87.31 88.19 85.56 C 89.49 85.42 91.08 84.70 92.06 85.97 C 94.14 88.44 95.07 92.43 93.31 95.31 C 92.29 95.66 91.23 95.89 90.14 96.00 C 88.85 94.38 87.82 92.05 85.53 91.71 C 82.65 91.15 79.44 90.96 76.88 92.66 C 76.97 95.18 77.05 97.69 77.37 100.19 C 78.34 100.17 80.29 100.14 81.26 100.13 C 81.76 98.39 82.23 96.65 82.71 94.90 C 86.92 94.12 87.53 98.90 87.45 101.99 C 87.40 105.12 87.45 109.41 83.91 110.73 C 82.23 109.62 82.10 107.43 81.09 105.83 C 80.05 105.53 78.98 105.29 77.91 105.12 C 77.56 108.30 75.88 114.96 80.80 115.00 C 83.92 115.01 87.96 114.93 89.81 111.94 C 91.11 110.27 92.02 107.42 94.68 108.16 C 98.33 111.79 94.94 117.48 92.40 120.85 C 82.45 119.40 72.39 120.42 62.41 119.76 C 62.33 118.76 62.26 117.77 62.20 116.77 C 63.22 116.19 64.23 115.61 65.25 115.03 C 66.58 108.18 66.42 101.08 65.77 94.16 C 65.80 91.87 63.68 90.93 61.95 90.04 C 60.22 90.89 57.68 90.83 56.84 92.87 C 52.41 101.22 48.56 109.87 44.16 118.23 C 42.92 121.33 38.00 121.80 36.50 118.70 C 32.36 110.58 29.08 102.04 25.03 93.88 C 24.33 92.23 22.41 91.88 20.99 91.09 C 21.01 90.25 21.06 88.57 21.08 87.72 C 26.74 84.88 33.61 84.98 39.57 86.72 C 42.50 87.89 40.20 90.93 38.65 92.28 C 40.10 95.81 41.49 99.44 43.78 102.54 C 46.12 99.29 47.67 95.58 49.21 91.91 C 47.61 90.73 44.93 88.12 47.84 86.72 C 52.34 84.95 57.67 85.11 62.13 86.99 Z" />
<path fill="#ffffff" opacity="1.00" d=" M 99.20 86.24 C 105.09 85.66 111.05 86.37 116.97 85.97 C 121.96 85.49 128.52 87.29 129.68 92.91 C 130.80 96.97 128.34 100.63 125.09 102.79 C 127.05 104.10 129.44 105.19 130.47 107.46 C 131.31 109.53 131.55 111.77 132.20 113.91 C 133.62 115.29 136.55 116.19 135.13 118.70 C 132.86 121.37 129.07 121.07 125.92 121.01 C 123.60 121.03 121.24 120.04 119.92 118.09 C 117.62 114.81 117.83 110.52 115.90 107.08 C 114.90 106.35 113.66 106.12 112.53 105.70 C 112.43 107.49 112.34 109.28 112.38 111.07 C 111.87 114.34 115.62 115.94 115.64 119.14 C 110.68 121.21 105.03 121.25 99.84 120.12 C 97.79 119.91 97.00 118.01 96.72 116.23 C 98.36 114.87 100.65 113.51 100.34 111.02 C 100.37 105.37 100.51 99.71 100.26 94.07 C 100.32 91.91 98.12 91.08 96.74 89.91 C 97.03 88.38 97.29 86.43 99.20 86.24 M 111.94 100.59 C 113.49 100.16 115.87 100.59 116.50 98.66 C 117.96 95.57 116.65 91.25 112.74 91.19 C 112.11 94.28 111.92 97.44 111.94 100.59 Z" />
<path fill="#ffffff" opacity="1.00" d=" M 22.18 145.02 C 25.57 142.70 30.00 143.01 33.88 143.42 C 35.61 143.57 36.47 145.27 37.26 146.58 C 39.42 150.54 40.94 154.90 44.04 158.26 C 46.87 154.13 48.33 149.24 51.18 145.13 C 53.10 142.87 56.44 143.16 59.12 143.18 C 61.34 143.29 64.29 143.60 65.09 146.09 C 64.91 148.39 62.43 149.69 62.10 151.94 C 61.33 157.94 61.80 164.01 62.06 170.03 C 62.08 172.25 64.49 173.25 65.77 174.70 C 64.89 176.21 63.83 177.84 61.86 177.90 C 56.87 178.72 51.16 179.14 46.82 176.04 C 47.77 174.51 48.83 173.05 50.01 171.70 C 50.42 168.57 50.47 165.40 50.04 162.27 C 45.91 166.51 45.06 172.69 41.79 177.50 C 36.40 174.01 36.57 166.33 32.17 161.86 C 31.83 165.23 31.55 168.65 32.05 172.02 C 32.91 173.01 34.04 173.72 35.06 174.54 C 34.77 175.85 34.48 177.51 32.84 177.70 C 29.10 178.62 23.88 179.37 21.17 176.00 C 21.59 173.62 24.94 172.95 24.80 170.31 C 25.42 163.92 25.72 157.43 25.14 151.03 C 23.82 149.24 20.01 147.64 22.18 145.02 Z" />
<path fill="#ffffff" opacity="1.00" d=" M 79.76 144.68 C 82.44 142.08 87.35 142.40 89.78 145.22 C 94.02 149.70 95.99 155.73 98.91 161.06 C 101.43 165.43 102.35 171.13 107.09 173.78 C 108.85 175.00 106.78 176.77 105.59 177.46 C 100.24 178.87 94.50 178.72 89.09 177.72 C 87.05 177.52 87.10 175.28 86.84 173.75 C 87.56 173.44 88.99 172.83 89.70 172.52 C 89.67 172.01 89.60 171.00 89.57 170.49 C 85.40 170.11 79.90 168.16 76.81 171.89 C 77.82 173.01 80.39 173.23 80.39 175.04 C 80.97 176.57 79.02 177.45 77.88 177.81 C 73.76 178.99 69.38 178.42 65.35 177.15 C 65.56 176.02 65.78 174.90 66.00 173.79 C 70.30 172.47 71.49 167.91 73.24 164.32 C 74.86 160.54 76.88 156.91 77.97 152.93 C 78.73 150.22 78.29 147.17 79.76 144.68 M 80.27 163.23 C 82.56 163.33 84.86 163.34 87.15 163.23 C 86.07 160.85 84.89 158.51 83.47 156.30 C 82.01 158.41 81.11 160.83 80.27 163.23 Z" />
<path fill="#ffffff" opacity="1.00" d=" M 108.12 144.53 C 111.99 143.13 116.43 142.49 120.39 143.76 C 126.29 148.00 131.01 153.76 137.30 157.49 C 137.46 155.09 138.05 152.51 137.06 150.21 C 135.65 148.59 132.82 147.14 134.43 144.64 C 138.65 142.19 144.23 142.77 148.61 144.60 C 148.59 145.42 148.56 147.06 148.54 147.88 C 147.19 149.05 145.01 149.93 144.96 152.01 C 144.50 159.34 145.21 166.71 144.58 174.03 C 144.54 175.90 143.36 177.41 142.28 178.84 C 134.04 174.59 128.60 166.56 120.87 161.54 C 119.72 164.78 119.73 168.30 120.76 171.58 C 121.82 172.56 124.02 173.05 123.65 174.90 C 123.58 177.57 120.13 177.97 118.10 178.34 C 114.59 178.58 108.32 178.64 108.88 173.56 C 113.45 171.42 112.22 166.06 112.39 161.95 C 112.26 158.23 112.78 154.33 111.43 150.79 C 109.67 148.93 106.62 147.57 108.12 144.53 Z" />
<path fill="#ffffff" opacity="1.00" d=" M 149.89 145.26 C 154.17 142.22 159.94 143.19 164.87 143.51 C 167.45 143.61 169.09 145.51 169.20 148.03 C 168.02 148.61 166.85 149.19 165.68 149.77 C 164.71 153.87 164.91 158.12 165.08 162.30 C 165.30 165.20 166.08 168.58 168.86 170.08 C 171.53 171.30 174.90 170.95 177.25 169.20 C 179.33 167.40 179.22 164.42 179.20 161.93 C 179.09 158.00 179.42 154.05 178.96 150.15 C 177.88 149.04 176.51 148.29 175.24 147.44 C 175.23 146.47 175.22 145.51 175.22 144.55 C 180.04 142.63 185.77 142.44 190.43 144.93 C 190.16 147.25 188.27 148.52 186.81 150.09 C 185.81 157.29 188.23 165.11 184.82 171.87 C 181.95 177.09 175.49 178.44 170.02 178.58 C 165.52 178.45 160.64 177.87 157.04 174.91 C 154.13 172.51 152.73 168.74 152.63 165.04 C 152.51 160.26 152.69 155.49 152.56 150.72 C 151.36 149.08 148.62 147.60 149.89 145.26 Z" />
<path fill="#ffffff" opacity="1.00" d=" M 204.74 144.71 C 206.71 142.65 210.01 142.58 212.53 143.51 C 215.25 145.05 217.00 147.78 218.53 150.41 C 222.25 157.42 225.58 164.63 229.05 171.77 C 230.37 172.74 232.73 173.09 232.80 175.11 C 231.75 177.82 228.66 178.05 226.20 178.30 C 221.94 178.50 217.57 178.69 213.42 177.53 C 211.80 176.97 212.12 175.13 211.81 173.80 C 212.53 173.48 213.99 172.84 214.71 172.52 C 214.66 172.00 214.56 170.96 214.51 170.45 C 210.84 169.86 206.95 169.30 203.30 170.22 C 200.71 171.84 204.10 173.23 205.25 174.33 C 206.37 177.81 201.51 178.25 199.12 178.41 C 195.86 178.31 190.51 178.97 189.95 174.60 C 191.96 173.18 194.63 172.30 195.61 169.84 C 198.07 164.75 200.51 159.64 202.53 154.37 C 203.80 151.27 203.09 147.66 204.74 144.71 M 208.19 156.26 C 207.02 158.50 206.09 160.85 205.26 163.23 C 207.56 163.33 209.86 163.34 212.17 163.23 C 211.07 160.78 209.87 158.36 208.19 156.26 Z" />
<path fill="#ffffff" opacity="1.00" d=" M 235.21 144.23 C 240.28 142.70 245.86 142.81 250.99 143.98 C 253.03 144.03 252.82 146.21 253.23 147.66 C 251.68 148.77 249.01 149.54 249.42 151.98 C 249.44 157.74 249.17 163.52 249.56 169.27 C 249.61 172.36 253.64 172.57 255.84 171.66 C 258.84 171.01 259.28 167.52 260.53 165.25 C 262.06 165.44 263.94 165.73 264.46 167.47 C 265.46 171.02 264.07 175.05 261.59 177.68 C 260.37 179.00 258.49 178.20 256.99 178.16 C 249.99 177.36 242.91 178.15 235.89 177.74 C 234.21 177.79 233.16 176.57 233.22 174.93 C 234.62 173.31 237.44 172.50 237.24 169.94 C 237.39 163.38 237.76 156.70 236.70 150.20 C 235.42 149.36 233.97 148.80 232.60 148.14 C 232.73 146.46 233.35 144.63 235.21 144.23 Z" />
</g>
</svg>
