<?xml version="1.0" standalone="no"?>
<!DOCTYPE svg PUBLIC "-//W3C//DTD SVG 20010904//EN"
 "http://www.w3.org/TR/2001/REC-SVG-20010904/DTD/svg10.dtd">
<svg version="1.0" xmlns="http://www.w3.org/2000/svg"
 width="700.000000pt" height="700.000000pt" viewBox="0 0 700.000000 700.000000"
 preserveAspectRatio="xMidYMid meet">

<g transform="translate(0.000000,700.000000) scale(0.100000,-0.100000)"
fill="#000000" stroke="none">
<path d="M3255 6993 c-231 -32 -466 -190 -584 -392 -41 -70 -101 -230 -101
-272 -1 -20 -20 -35 -113 -87 -259 -144 -475 -345 -643 -597 -210 -315 -314
-671 -314 -1074 0 -336 -67 -846 -160 -1226 -64 -260 -58 -246 -126 -273 -361
-145 -460 -606 -189 -877 79 -79 196 -139 300 -155 41 -5 317 -10 660 -10
l590 0 28 -83 c86 -251 302 -452 562 -521 302 -81 650 37 842 286 56 73 117
188 138 263 l16 54 632 3 c699 4 669 1 801 71 187 99 303 338 268 549 -17 105
-76 219 -150 292 -69 68 -114 98 -193 127 l-56 21 -36 131 c-35 130 -87 363
-87 392 0 9 28 28 67 45 112 51 261 157 358 254 157 158 270 356 327 574 29
108 31 130 32 292 1 113 -4 200 -13 245 -100 507 -493 902 -998 1002 -105 21
-356 23 -450 4 l-63 -12 -67 54 c-76 61 -206 146 -300 197 -61 33 -61 34 -73
92 -28 142 -102 278 -215 393 -179 183 -439 273 -690 238z m244 -372 c33 -10
80 -30 103 -44 44 -26 150 -127 133 -127 -6 0 -53 7 -105 15 -125 19 -396 19
-524 0 -55 -8 -101 -13 -104 -11 -9 9 96 105 139 127 118 60 246 75 358 40z
m116 -517 c50 -8 133 -27 185 -41 133 -38 434 -189 409 -206 -308 -209 -504
-502 -564 -841 -19 -114 -19 -325 0 -439 46 -258 170 -492 358 -674 241 -233
533 -355 859 -357 l126 -1 22 -110 c48 -244 135 -544 175 -606 27 -42 95 -79
143 -79 38 0 98 -23 125 -48 31 -28 57 -88 57 -132 0 -44 -26 -104 -57 -132
-56 -51 60 -48 -2085 -48 -1916 0 -1995 1 -2033 19 -70 32 -105 86 -105 161 0
102 62 163 182 180 70 10 119 40 147 90 40 73 135 419 185 675 63 328 100 664
116 1050 14 351 43 485 160 720 297 596 938 926 1595 819z m1318 -421 c-29 -2
-77 -2 -105 0 -29 2 -6 3 52 3 58 0 81 -1 53 -3z m-180 -10 c-7 -2 -21 -2 -30
0 -10 3 -4 5 12 5 17 0 24 -2 18 -5z m280 0 c-7 -2 -19 -2 -25 0 -7 3 -2 5 12
5 14 0 19 -2 13 -5z m-346 -9 c-3 -3 -12 -4 -19 -1 -8 3 -5 6 6 6 11 1 17 -2
13 -5z m-82 -24 c-27 -12 -43 -12 -25 0 8 5 22 9 30 9 10 0 8 -3 -5 -9z m-116
-49 c-42 -20 -100 -54 -129 -75 -29 -21 -49 -33 -46 -27 17 27 213 141 241
141 6 0 -24 -18 -66 -39z m741 29 c8 -5 11 -10 5 -10 -5 0 -17 5 -25 10 -8 5
-10 10 -5 10 6 0 17 -5 25 -10z m-980 -195 c-24 -25 -46 -45 -49 -45 -3 0 15
20 39 45 24 25 46 45 49 45 3 0 -15 -20 -39 -45z m-470 -3403 c0 -19 -61 -101
-107 -144 -166 -153 -420 -158 -600 -11 -41 34 -113 131 -113 152 0 8 123 11
410 11 226 0 410 -4 410 -8z"/>
<path d="M3114 5715 c-338 -61 -602 -258 -749 -560 -68 -139 -95 -239 -102
-382 -6 -107 -5 -113 20 -156 66 -113 237 -115 301 -4 17 30 26 65 31 122 9
112 30 187 76 276 108 207 306 335 554 358 115 10 161 35 195 106 28 58 23
119 -14 176 -50 75 -144 95 -312 64z"/>
</g>
</svg>
