<?xml version="1.0" encoding="UTF-8" ?>
<!DOCTYPE svg PUBLIC "-//W3C//DTD SVG 1.1//EN" "http://www.w3.org/Graphics/SVG/1.1/DTD/svg11.dtd">
<svg width="191pt" height="104pt" viewBox="0 0 191 104" version="1.1" xmlns="http://www.w3.org/2000/svg">
<g id="#ffffffff">
<path fill="#ffffff" opacity="1.00" d=" M 0.00 0.00 L 50.23 0.00 C 45.84 0.97 41.31 1.34 37.02 2.75 C 23.88 6.63 12.58 16.15 6.34 28.33 C -0.90 41.97 -1.33 58.99 4.92 73.08 C 12.57 90.65 30.67 103.38 49.93 103.78 C 79.30 103.80 108.67 103.76 138.04 103.80 C 152.44 104.37 166.75 97.98 176.52 87.49 C 186.46 77.07 191.49 62.32 190.28 47.99 C 188.99 27.67 174.29 9.08 154.88 3.02 C 151.16 1.55 147.03 1.63 143.38 0.00 L 191.00 0.00 L 191.00 104.00 L 0.00 104.00 L 0.00 0.00 Z" />
<path fill="#ffffff" opacity="1.00" d=" M 48.28 9.36 C 78.52 9.05 108.76 9.30 139.00 9.23 C 149.99 9.00 160.88 13.61 168.65 21.33 C 177.40 29.68 182.38 41.91 181.74 54.02 C 181.22 70.42 170.27 85.93 155.01 91.97 C 149.02 94.46 142.51 95.42 136.04 95.28 C 108.37 95.25 80.69 95.29 53.02 95.26 C 42.81 95.31 32.55 91.81 24.73 85.19 C 14.49 76.72 8.44 63.26 9.28 49.96 C 9.96 29.32 27.59 10.70 48.28 9.36 M 43.51 18.76 C 33.84 21.23 25.45 28.22 21.20 37.24 C 16.39 46.84 16.61 58.69 21.72 68.13 C 28.49 81.85 45.28 89.50 60.09 85.78 C 71.16 83.43 80.56 75.12 84.62 64.61 C 89.99 51.18 85.73 34.67 74.45 25.58 C 66.04 18.49 54.11 15.91 43.51 18.76 Z" />
</g>
<g id="#62b1f6ff">
<path fill="#62b1f6" opacity="1.00" d=" M 50.23 0.00 L 143.38 0.00 C 147.03 1.63 151.16 1.55 154.88 3.02 C 174.29 9.08 188.99 27.67 190.28 47.99 C 191.49 62.32 186.46 77.07 176.52 87.49 C 166.75 97.98 152.44 104.37 138.04 103.80 C 108.67 103.76 79.30 103.80 49.93 103.78 C 30.67 103.38 12.57 90.65 4.92 73.08 C -1.33 58.99 -0.90 41.97 6.34 28.33 C 12.58 16.15 23.88 6.63 37.02 2.75 C 41.31 1.34 45.84 0.97 50.23 0.00 M 48.28 9.36 C 27.59 10.70 9.96 29.32 9.28 49.96 C 8.44 63.26 14.49 76.72 24.73 85.19 C 32.55 91.81 42.81 95.31 53.02 95.26 C 80.69 95.29 108.37 95.25 136.04 95.28 C 142.51 95.42 149.02 94.46 155.01 91.97 C 170.27 85.93 181.22 70.42 181.74 54.02 C 182.38 41.91 177.40 29.68 168.65 21.33 C 160.88 13.61 149.99 9.00 139.00 9.23 C 108.76 9.30 78.52 9.05 48.28 9.36 Z" />
<path fill="#62b1f6" opacity="1.00" d=" M 43.51 18.76 C 54.11 15.91 66.04 18.49 74.45 25.58 C 85.73 34.67 89.99 51.18 84.62 64.61 C 80.56 75.12 71.16 83.43 60.09 85.78 C 45.28 89.50 28.49 81.85 21.72 68.13 C 16.61 58.69 16.39 46.84 21.20 37.24 C 25.45 28.22 33.84 21.23 43.51 18.76 Z" />
</g>
</svg>
