<?xml version="1.0" encoding="UTF-8" ?>
<!DOCTYPE svg PUBLIC "-//W3C//DTD SVG 1.1//EN" "http://www.w3.org/Graphics/SVG/1.1/DTD/svg11.dtd">
<svg width="792pt" height="433pt" viewBox="0 0 792 433" version="1.1" xmlns="http://www.w3.org/2000/svg">
<g id="#d8ecfdff">
<path fill="#d8ecfd" opacity="1.00" d=" M 201.99 0.00 L 586.08 0.00 L 586.07 1.20 C 562.05 0.74 538.02 1.13 514.00 1.00 C 415.33 1.00 316.67 1.00 218.00 1.00 C 212.64 1.02 207.28 0.87 201.93 1.21 L 201.99 0.00 Z" />
</g>
<g id="#62b1f6ff">
<path fill="#62b1f6" opacity="1.00" d=" M 104.19 30.30 C 133.66 12.71 167.50 1.84 201.93 1.21 C 207.28 0.87 212.64 1.02 218.00 1.00 C 316.67 1.00 415.33 1.00 514.00 1.00 C 538.02 1.13 562.05 0.74 586.07 1.20 C 596.36 1.28 606.61 2.63 616.71 4.52 C 688.21 18.44 750.55 71.51 776.02 139.71 C 791.45 181.44 793.74 227.87 782.62 270.94 C 772.51 309.46 751.32 344.99 722.39 372.32 C 694.67 398.46 659.98 417.27 622.73 425.45 C 613.25 427.47 603.68 428.95 594.17 430.76 C 591.77 431.23 589.46 432.06 587.22 433.00 L 193.66 433.00 C 185.63 428.11 175.92 427.76 166.94 425.79 C 84.37 409.28 16.09 338.41 1.90 255.53 C 1.49 253.34 0.81 251.22 0.00 249.16 L 0.00 182.80 C 2.21 177.60 2.35 171.87 3.73 166.45 C 16.37 109.68 54.55 59.99 104.19 30.30 M 560.28 73.12 C 535.66 75.47 511.39 83.64 491.29 98.25 C 455.50 123.82 431.54 165.89 429.62 210.02 C 427.93 254.27 448.21 298.57 482.45 326.56 C 507.28 346.81 538.78 359.38 571.00 359.48 C 611.53 360.75 651.87 342.90 679.26 313.21 C 706.94 283.22 721.77 241.24 716.85 200.51 C 712.61 162.89 693.15 127.03 663.26 103.66 C 634.74 80.44 596.79 69.55 560.28 73.12 Z" />
</g>
</svg>
