<?xml version="1.0" encoding="UTF-8" ?>
<!DOCTYPE svg PUBLIC "-//W3C//DTD SVG 1.1//EN" "http://www.w3.org/Graphics/SVG/1.1/DTD/svg11.dtd">
<svg width="190pt" height="104pt" viewBox="0 0 190 104" version="1.1" xmlns="http://www.w3.org/2000/svg">
<g id="#ffffffff">
<path fill="#ffffff" opacity="1.00" d=" M 0.00 0.00 L 190.00 0.00 L 190.00 104.00 L 140.34 104.00 C 144.26 102.99 148.33 102.67 152.21 101.49 C 165.40 97.78 176.88 88.46 183.29 76.36 C 190.17 63.92 191.21 48.58 186.75 35.16 C 180.21 15.49 160.89 0.62 140.05 0.22 C 109.71 0.21 79.36 0.21 49.02 0.22 C 24.56 0.57 2.36 21.10 0.00 45.44 L 0.00 0.00 Z" />
<path fill="#ffffff" opacity="1.00" d=" M 130.15 18.27 C 140.37 15.93 151.68 18.53 159.67 25.38 C 168.32 32.42 173.06 43.91 172.02 54.99 C 170.95 66.52 163.76 77.23 153.42 82.45 C 143.24 87.92 130.26 87.61 120.38 81.61 C 111.10 76.36 104.68 66.54 103.37 55.99 C 100.99 39.01 113.29 21.55 130.15 18.27 Z" />
<path fill="#ffffff" opacity="1.00" d=" M 0.00 58.36 C 2.24 79.66 19.40 98.32 40.42 102.37 C 42.53 102.75 44.69 103.03 46.63 104.00 L 0.00 104.00 L 0.00 58.36 Z" />
</g>
<g id="#62b1f6ff">
<path fill="#62b1f6" opacity="1.00" d=" M 0.00 45.44 C 2.36 21.10 24.56 0.57 49.02 0.22 C 79.36 0.21 109.71 0.21 140.05 0.22 C 160.89 0.62 180.21 15.49 186.75 35.16 C 191.21 48.58 190.17 63.92 183.29 76.36 C 176.88 88.46 165.40 97.78 152.21 101.49 C 148.33 102.67 144.26 102.99 140.34 104.00 L 46.63 104.00 C 44.69 103.03 42.53 102.75 40.42 102.37 C 19.40 98.32 2.24 79.66 0.00 58.36 L 0.00 45.44 M 130.15 18.27 C 113.29 21.55 100.99 39.01 103.37 55.99 C 104.68 66.54 111.10 76.36 120.38 81.61 C 130.26 87.61 143.24 87.92 153.42 82.45 C 163.76 77.23 170.95 66.52 172.02 54.99 C 173.06 43.91 168.32 32.42 159.67 25.38 C 151.68 18.53 140.37 15.93 130.15 18.27 Z" />
</g>
</svg>
