<?xml version="1.0" encoding="UTF-8" ?>
<!DOCTYPE svg PUBLIC "-//W3C//DTD SVG 1.1//EN" "http://www.w3.org/Graphics/SVG/1.1/DTD/svg11.dtd">
<svg width="796pt" height="433pt" viewBox="0 0 796 433" version="1.1" xmlns="http://www.w3.org/2000/svg">
<g id="#62b1f6ff">
<path fill="#62b1f6" opacity="1.00" d=" M 206.85 0.00 L 598.27 0.00 C 606.51 4.43 615.99 5.44 625.02 7.31 C 636.91 9.26 648.29 13.34 659.49 17.64 C 726.06 44.08 776.96 106.21 790.01 176.61 C 796.44 212.55 794.35 250.13 782.76 284.83 C 771.40 319.83 750.68 351.68 723.37 376.32 C 687.79 408.68 641.20 429.41 593.01 431.85 C 585.35 432.61 577.67 432.12 570.00 431.98 C 468.33 432.00 366.67 431.99 265.00 431.99 C 245.31 431.88 225.61 432.22 205.92 431.82 C 192.82 431.64 179.80 429.61 167.05 426.68 C 104.92 411.77 50.49 367.69 23.16 309.92 C 8.98 280.11 1.86 246.99 2.46 214.00 C 2.68 154.18 29.93 95.25 74.89 55.90 C 97.72 35.54 125.05 20.18 154.40 11.49 C 166.64 7.51 179.39 5.53 192.04 3.37 C 197.02 2.47 202.14 1.99 206.85 0.00 M 195.37 39.43 C 166.08 42.39 137.94 53.92 114.15 71.12 C 70.27 102.76 40.09 154.40 38.56 208.94 C 35.30 266.06 62.51 323.49 107.59 358.41 C 133.95 379.11 166.31 391.84 199.57 395.52 C 210.65 396.97 221.85 396.59 233.00 396.65 C 343.67 396.64 454.33 396.65 565.00 396.64 C 574.76 396.61 584.56 396.92 594.27 395.67 C 632.54 392.05 669.75 376.22 698.18 350.22 C 726.54 324.45 746.73 289.61 754.33 251.99 C 758.38 231.08 758.83 209.41 755.39 188.38 C 749.10 151.07 730.86 115.72 703.52 89.48 C 674.55 60.33 634.99 41.78 593.96 38.71 C 584.65 38.13 575.32 38.42 566.00 38.35 C 510.00 38.35 454.00 38.35 398.00 38.35 C 337.66 38.39 277.33 38.17 217.00 38.77 C 209.79 38.85 202.54 38.40 195.37 39.43 Z" />
<path fill="#62b1f6" opacity="1.00" d=" M 198.45 74.70 C 227.27 70.81 257.25 75.79 283.25 88.83 C 296.24 95.12 307.86 103.87 318.45 113.61 C 348.19 142.11 364.13 184.00 362.00 225.01 C 360.25 269.01 335.95 310.97 299.73 335.68 C 280.66 349.10 258.07 356.96 235.04 359.95 C 190.51 365.48 144.08 348.28 113.17 315.91 C 87.43 288.47 72.71 250.67 74.06 212.99 C 74.87 175.66 91.58 139.21 118.43 113.43 C 140.11 92.46 168.55 78.70 198.45 74.70 Z" />
</g>
<g id="#d7ebfdff">
<path fill="#d7ebfd" opacity="1.00" d=" M 205.92 431.82 C 225.61 432.22 245.31 431.88 265.00 431.99 C 366.67 431.99 468.33 432.00 570.00 431.98 C 577.67 432.12 585.35 432.61 593.01 431.85 L 592.97 433.00 L 205.92 433.00 L 205.92 431.82 Z" />
</g>
</svg>
