<?xml version="1.0" standalone="no"?>
<!DOCTYPE svg PUBLIC "-//W3C//DTD SVG 20010904//EN"
 "http://www.w3.org/TR/2001/REC-SVG-20010904/DTD/svg10.dtd">
<svg version="1.0" xmlns="http://www.w3.org/2000/svg"
 width="700.000000pt" height="700.000000pt" viewBox="0 0 700.000000 700.000000"
 preserveAspectRatio="xMidYMid meet">

<g transform="translate(0.000000,700.000000) scale(0.100000,-0.100000)"
fill="#000000" stroke="none">
<path d="M3330 6981 c-240 -51 -445 -211 -558 -436 -32 -65 -72 -184 -72 -219
-1 -16 -23 -34 -104 -78 -503 -278 -855 -785 -941 -1356 -8 -53 -19 -213 -25
-354 -13 -361 -55 -708 -126 -1053 -37 -177 -97 -395 -109 -395 -21 0 -141
-63 -188 -98 -57 -44 -118 -120 -153 -191 -142 -296 13 -641 336 -747 50 -17
109 -19 687 -22 l632 -3 16 -57 c78 -269 327 -495 612 -554 177 -36 349 -14
518 67 198 95 361 286 421 491 l15 53 632 3 c577 3 637 5 687 22 190 62 331
212 375 397 56 239 -66 491 -289 599 -46 22 -87 40 -92 40 -14 0 -78 245 -119
452 -66 334 -115 751 -115 979 0 328 -51 592 -165 851 -158 360 -453 683 -800
876 -102 56 -103 58 -110 100 -16 108 -86 253 -170 355 -193 233 -499 340
-795 278z m365 -385 c67 -33 184 -130 172 -142 -2 -3 -50 2 -105 11 -135 20
-395 20 -524 -1 -55 -9 -102 -14 -104 -11 -13 13 103 110 169 141 90 43 100
45 219 42 90 -3 104 -6 173 -40z m55 -493 c610 -97 1124 -604 1235 -1218 9
-52 20 -196 25 -339 15 -378 54 -725 121 -1060 53 -265 142 -583 184 -654 26
-43 77 -72 143 -82 75 -10 114 -30 149 -77 24 -31 28 -46 28 -103 0 -58 -4
-71 -29 -104 -16 -21 -47 -47 -70 -57 -40 -18 -109 -19 -2036 -19 -1927 0
-1996 1 -2036 19 -23 10 -54 36 -70 57 -25 33 -29 46 -29 104 0 58 4 71 29
104 33 43 95 75 145 76 50 0 117 36 141 75 45 73 124 349 184 640 72 351 111
695 126 1089 10 274 24 372 80 537 77 231 184 403 360 580 63 63 145 137 182
163 347 245 727 335 1138 269z m160 -4082 c0 -23 -86 -134 -128 -164 -103 -75
-191 -102 -310 -95 -141 9 -269 81 -343 191 -21 33 -39 63 -39 68 0 5 178 9
410 9 232 0 410 -4 410 -9z"/>
<path d="M3266 5719 c-401 -59 -729 -349 -842 -744 -26 -92 -43 -269 -30 -318
9 -37 64 -97 103 -113 93 -39 202 8 237 101 4 11 12 61 16 110 17 175 75 300
195 420 122 121 249 179 426 195 120 10 164 33 198 102 26 54 26 100 2 153
-43 95 -126 120 -305 94z"/>
</g>
</svg>
