<?xml version="1.0" standalone="no"?>
<!DOCTYPE svg PUBLIC "-//W3C//DTD SVG 20010904//EN"
 "http://www.w3.org/TR/2001/REC-SVG-20010904/DTD/svg10.dtd">
<svg version="1.0" xmlns="http://www.w3.org/2000/svg"
 width="653.000000pt" height="597.000000pt" viewBox="0 0 653.000000 597.000000"
 preserveAspectRatio="xMidYMid meet">

<g transform="translate(0.000000,597.000000) scale(0.100000,-0.100000)"
fill="#000000" stroke="none">
<path d="M4638 5933 c-171 -152 -3173 -3032 -3193 -3062 -65 -105 -74 -255
-20 -364 96 -194 358 -268 532 -150 23 15 238 216 478 446 241 229 440 417
444 417 3 0 16 -17 27 -38 22 -38 681 -733 750 -791 58 -47 189 -109 269 -126
209 -44 424 14 581 157 205 185 698 667 719 702 117 199 31 455 -179 535 l-46
17 119 117 c125 122 174 196 187 279 4 21 10 38 13 38 4 0 29 -23 56 -51 61
-62 86 -73 125 -56 43 18 549 504 556 534 4 14 3 37 -2 50 -7 19 -399 433
-1220 1291 -106 110 -127 116 -196 55z m651 -786 c303 -317 551 -581 551 -585
0 -12 -359 -354 -368 -350 -4 2 -190 194 -413 428 -223 234 -476 499 -562 589
-86 90 -157 168 -157 172 0 4 82 86 183 183 170 164 183 174 198 158 9 -9 264
-277 568 -595z m-648 -322 c488 -511 499 -526 499 -644 0 -131 9 -120 -609
-709 -318 -303 -552 -534 -555 -547 -13 -53 30 -105 86 -105 42 0 31 -10 580
517 76 73 150 139 165 146 67 34 160 31 216 -7 73 -49 99 -163 57 -246 -12
-24 -153 -166 -376 -379 -315 -302 -364 -345 -427 -376 -141 -68 -283 -68
-427 1 -278 133 -334 476 -117 720 43 48 52 64 52 96 0 44 -25 75 -70 83 -42
9 -86 -23 -152 -110 -63 -83 -111 -191 -128 -293 -7 -40 -15 -76 -18 -79 -3
-3 -20 17 -37 43 -106 167 -73 390 84 572 48 55 54 78 34 115 -17 33 -39 46
-79 47 -32 0 -44 -8 -96 -63 -94 -100 -152 -228 -178 -392 l-7 -40 -40 45
c-47 52 -85 127 -94 187 -14 97 49 248 152 362 53 59 64 78 64 107 0 48 -37
84 -87 84 -32 0 -44 -8 -93 -57 -114 -118 -198 -286 -208 -415 l-5 -67 -473
-453 c-260 -249 -488 -461 -506 -470 -45 -24 -128 -23 -178 2 -101 51 -135
183 -74 278 14 21 2602 2502 2610 2502 0 0 196 -205 435 -455z"/>
<path d="M1495 2095 c-35 -34 -34 -93 1 -126 24 -22 35 -24 150 -28 l124 -3 0
-129 c0 -71 -3 -129 -7 -129 -43 0 -216 -37 -287 -61 -435 -146 -751 -518
-825 -972 l-17 -102 -68 -5 c-56 -4 -71 -9 -87 -29 -28 -35 -24 -77 10 -112
l29 -29 1342 0 1342 0 29 29 c34 35 38 77 10 112 -16 20 -31 25 -87 29 l-69 5
-7 50 c-44 294 -147 511 -337 709 -184 191 -425 319 -681 361 -52 8 -98 15
-102 15 -5 0 -8 58 -8 129 l0 129 124 3 c115 4 126 6 150 28 35 33 36 92 1
126 l-24 25 -341 0 -341 0 -24 -25z m485 -595 c128 -16 224 -45 345 -105 209
-103 367 -261 471 -470 53 -107 98 -252 105 -340 l4 -40 -1039 -3 c-572 -1
-1043 1 -1047 5 -3 5 0 44 8 88 94 546 608 931 1153 865z"/>
</g>
</svg>
