<?xml version="1.0" standalone="no"?>
<!DOCTYPE svg PUBLIC "-//W3C//DTD SVG 20010904//EN"
 "http://www.w3.org/TR/2001/REC-SVG-20010904/DTD/svg10.dtd">
<svg version="1.0" xmlns="http://www.w3.org/2000/svg"
 width="408.000000pt" height="370.000000pt" viewBox="0 0 408.000000 370.000000"
 preserveAspectRatio="xMidYMid meet">
<metadata>
Created by potrace 1.16, written by Peter Selinger 2001-2019
</metadata>
<g transform="translate(0.000000,370.000000) scale(0.100000,-0.100000)"
fill="#000000" stroke="none">
<path d="M865 3503 c-27 -8 -88 -34 -135 -56 -69 -33 -101 -56 -171 -126 -47
-47 -93 -99 -102 -116 -31 -59 -49 -101 -73 -174 l-24 -74 0 -1097 c0 -1222
-4 -1153 69 -1299 20 -40 50 -90 68 -111 18 -20 30 -40 28 -44 -3 -3 -2 -4 1
-2 10 7 52 -38 46 -49 -3 -5 -2 -7 3 -3 4 4 25 -8 46 -26 55 -47 170 -101 266
-125 80 -21 101 -21 1178 -21 1071 0 1099 0 1178 20 94 24 211 79 266 127 21
18 41 29 45 26 3 -3 6 -2 6 4 0 14 36 54 44 48 3 -3 4 -2 1 1 -2 4 11 24 29
45 43 50 105 176 122 248 11 45 13 271 14 1153 0 1141 0 1136 -40 1233 -42
101 -66 139 -125 204 -30 32 -51 62 -47 67 4 5 3 6 -2 2 -5 -4 -27 7 -50 25
-71 56 -148 94 -245 122 -48 13 -195 15 -1200 14 -995 -1 -1153 -3 -1196 -16z
m1295 -447 c391 -55 708 -290 880 -651 148 -311 143 -628 -14 -961 -24 -50
-62 -118 -84 -152 -23 -33 -38 -62 -35 -66 4 -3 20 -6 37 -6 25 -1 79 -39 276
-196 259 -206 300 -243 300 -273 0 -11 -18 -42 -40 -70 -64 -81 -57 -84 -369
165 -149 118 -271 222 -271 230 0 24 -1 29 -12 42 -9 10 -27 -3 -82 -56 -39
-38 -98 -88 -131 -113 -33 -24 -168 -130 -300 -234 -132 -105 -258 -205 -281
-222 l-41 -32 -269 222 c-148 122 -307 249 -353 282 -357 256 -553 659 -511
1053 31 290 132 504 335 708 269 270 597 382 965 330z"/>
<path d="M1870 2476 c-157 -36 -281 -119 -375 -250 -77 -109 -115 -228 -115
-368 0 -118 14 -176 67 -287 147 -307 523 -438 824 -287 181 91 310 261 344
453 18 101 18 144 0 240 -24 128 -81 231 -178 327 -50 50 -106 94 -144 114
-124 65 -291 88 -423 58z m275 -71 c182 -49 327 -178 375 -332 33 -108 22
-335 -21 -416 -16 -29 -19 -16 -8 33 14 63 14 214 -1 285 -17 82 -62 168 -122
231 -91 97 -195 148 -363 181 -65 12 -95 22 -95 32 0 18 149 10 235 -14z"/>
</g>
</svg>
